<svg width="400" height="267" viewBox="0 0 400 267" fill="none" xmlns="http://www.w3.org/2000/svg">
<circle cx="200" cy="48" r="48" fill="#C1DCDC"/>
<path fill-rule="evenodd" clip-rule="evenodd" d="M214.891 33.9375H186.114L183.656 29.5312C183.52 29.2881 183.322 29.0856 183.082 28.9446C182.842 28.8036 182.569 28.7292 182.291 28.7291H179.166C178.752 28.7291 178.354 28.8937 178.061 29.1868C177.768 29.4798 177.604 29.8772 177.604 30.2916C177.604 30.706 177.768 31.1035 178.061 31.3965C178.354 31.6895 178.752 31.8541 179.166 31.8541H181.374L183.799 36.2041L189.395 48.5833L189.401 48.5958L189.895 49.6854L184.276 55.6791C184.078 55.8904 183.943 56.1526 183.885 56.4364C183.828 56.7202 183.85 57.0144 183.95 57.2862C184.05 57.5581 184.223 57.7968 184.451 57.9758C184.678 58.1548 184.951 58.267 185.239 58.3L190.36 58.8854C196.765 59.6187 203.233 59.6187 209.639 58.8854L214.76 58.302C215.172 58.2551 215.548 58.0464 215.806 57.7219C216.064 57.3974 216.183 56.9837 216.136 56.5718C216.089 56.1599 215.88 55.7835 215.556 55.5255C215.231 55.2674 214.818 55.1488 214.406 55.1958L209.285 55.7791C203.115 56.4842 196.884 56.4842 190.714 55.7791L188.683 55.55L192.808 51.15C192.847 51.1075 192.884 51.063 192.918 51.0166L194.485 51.2208C196.683 51.5083 198.906 51.5645 201.114 51.3875C203.665 51.1857 206.151 50.4801 208.427 49.3115C210.703 48.1428 212.726 46.5344 214.376 44.5791L215.583 43.152C215.622 43.1043 215.659 43.0542 215.693 43.002L217.939 39.5812C219.531 37.1562 217.791 33.9375 214.891 33.9375ZM193.033 47.8833C192.863 47.8611 192.703 47.7963 192.565 47.6951C192.428 47.5938 192.318 47.4592 192.247 47.3041L192.243 47.2979L187.618 37.0625H214.889C214.983 37.0621 215.075 37.0873 215.156 37.1352C215.237 37.1832 215.304 37.2522 215.349 37.3349C215.393 37.4176 215.415 37.5109 215.411 37.6048C215.407 37.6988 215.378 37.79 215.326 37.8687L213.133 41.2104L211.989 42.5645C210.605 44.2043 208.909 45.5533 207 46.5335C205.092 47.5137 203.007 48.1056 200.868 48.275C198.874 48.4333 196.87 48.3833 194.889 48.125L193.033 47.8833Z" fill="#1E1E1E"/>
<path d="M188.541 61.5416C187.712 61.5416 186.917 61.8709 186.331 62.4569C185.745 63.043 185.416 63.8378 185.416 64.6666C185.416 65.4954 185.745 66.2903 186.331 66.8763C186.917 67.4624 187.712 67.7916 188.541 67.7916C189.37 67.7916 190.165 67.4624 190.751 66.8763C191.337 66.2903 191.666 65.4954 191.666 64.6666C191.666 63.8378 191.337 63.043 190.751 62.4569C190.165 61.8709 189.37 61.5416 188.541 61.5416ZM208.333 64.6666C208.333 63.8378 208.662 63.043 209.248 62.4569C209.834 61.8709 210.629 61.5416 211.458 61.5416C212.286 61.5416 213.081 61.8709 213.667 62.4569C214.253 63.043 214.583 63.8378 214.583 64.6666C214.583 65.4954 214.253 66.2903 213.667 66.8763C213.081 67.4624 212.286 67.7916 211.458 67.7916C210.629 67.7916 209.834 67.4624 209.248 66.8763C208.662 66.2903 208.333 65.4954 208.333 64.6666Z" fill="#1E1E1E"/>
<path d="M75.592 140.126C74.404 140.126 73.312 139.85 72.316 139.298C71.332 138.746 70.546 137.978 69.958 136.994C69.382 135.998 69.094 134.882 69.094 133.646C69.094 132.41 69.382 131.3 69.958 130.316C70.546 129.332 71.332 128.564 72.316 128.012C73.312 127.46 74.404 127.184 75.592 127.184C76.78 127.184 77.866 127.46 78.85 128.012C79.846 128.564 80.626 129.332 81.19 130.316C81.766 131.3 82.054 132.41 82.054 133.646C82.054 134.882 81.766 135.998 81.19 136.994C80.614 137.978 79.834 138.746 78.85 139.298C77.866 139.85 76.78 140.126 75.592 140.126ZM75.592 137.318C76.6 137.318 77.404 136.982 78.004 136.31C78.616 135.638 78.922 134.75 78.922 133.646C78.922 132.53 78.616 131.642 78.004 130.982C77.404 130.31 76.6 129.974 75.592 129.974C74.572 129.974 73.756 130.304 73.144 130.964C72.544 131.624 72.244 132.518 72.244 133.646C72.244 134.762 72.544 135.656 73.144 136.328C73.756 136.988 74.572 137.318 75.592 137.318ZM89.8864 129.848C91.0624 129.848 91.9984 130.232 92.6944 131C93.4024 131.756 93.7564 132.8 93.7564 134.132V140H90.6964V134.546C90.6964 133.874 90.5224 133.352 90.1744 132.98C89.8264 132.608 89.3584 132.422 88.7704 132.422C88.1824 132.422 87.7144 132.608 87.3664 132.98C87.0184 133.352 86.8444 133.874 86.8444 134.546V140H83.7664V129.956H86.8444V131.288C87.1564 130.844 87.5764 130.496 88.1044 130.244C88.6324 129.98 89.2264 129.848 89.8864 129.848ZM105.363 134.816C105.363 135.104 105.345 135.404 105.309 135.716H98.3433C98.3913 136.34 98.5893 136.82 98.9373 137.156C99.2973 137.48 99.7353 137.642 100.251 137.642C101.019 137.642 101.553 137.318 101.853 136.67H105.129C104.961 137.33 104.655 137.924 104.211 138.452C103.779 138.98 103.233 139.394 102.573 139.694C101.913 139.994 101.175 140.144 100.359 140.144C99.3753 140.144 98.4993 139.934 97.7313 139.514C96.9633 139.094 96.3633 138.494 95.9313 137.714C95.4993 136.934 95.2833 136.022 95.2833 134.978C95.2833 133.934 95.4933 133.022 95.9133 132.242C96.3453 131.462 96.9453 130.862 97.7133 130.442C98.4813 130.022 99.3633 129.812 100.359 129.812C101.331 129.812 102.195 130.016 102.951 130.424C103.707 130.832 104.295 131.414 104.715 132.17C105.147 132.926 105.363 133.808 105.363 134.816ZM102.213 134.006C102.213 133.478 102.033 133.058 101.673 132.746C101.313 132.434 100.863 132.278 100.323 132.278C99.8073 132.278 99.3693 132.428 99.0093 132.728C98.6613 133.028 98.4453 133.454 98.3613 134.006H102.213ZM114.727 132.404V134.96H106.807V132.404H114.727ZM122.001 140.126C121.077 140.126 120.249 139.976 119.517 139.676C118.785 139.376 118.197 138.932 117.753 138.344C117.321 137.756 117.093 137.048 117.069 136.22H120.345C120.393 136.688 120.555 137.048 120.831 137.3C121.107 137.54 121.467 137.66 121.911 137.66C122.367 137.66 122.727 137.558 122.991 137.354C123.255 137.138 123.387 136.844 123.387 136.472C123.387 136.16 123.279 135.902 123.063 135.698C122.859 135.494 122.601 135.326 122.289 135.194C121.989 135.062 121.557 134.912 120.993 134.744C120.177 134.492 119.511 134.24 118.995 133.988C118.479 133.736 118.035 133.364 117.663 132.872C117.291 132.38 117.105 131.738 117.105 130.946C117.105 129.77 117.531 128.852 118.383 128.192C119.235 127.52 120.345 127.184 121.713 127.184C123.105 127.184 124.227 127.52 125.079 128.192C125.931 128.852 126.387 129.776 126.447 130.964H123.117C123.093 130.556 122.943 130.238 122.667 130.01C122.391 129.77 122.037 129.65 121.604 129.65C121.233 129.65 120.933 129.752 120.705 129.956C120.477 130.148 120.363 130.43 120.363 130.802C120.363 131.21 120.555 131.528 120.938 131.756C121.323 131.984 121.923 132.23 122.739 132.494C123.555 132.77 124.215 133.034 124.719 133.286C125.235 133.538 125.679 133.904 126.051 134.384C126.423 134.864 126.609 135.482 126.609 136.238C126.609 136.958 126.423 137.612 126.051 138.2C125.691 138.788 125.163 139.256 124.467 139.604C123.771 139.952 122.949 140.126 122.001 140.126ZM134.101 137.39V140H132.535C131.419 140 130.549 139.73 129.925 139.19C129.301 138.638 128.989 137.744 128.989 136.508V132.512H127.765V129.956H128.989V127.508H132.067V129.956H134.083V132.512H132.067V136.544C132.067 136.844 132.139 137.06 132.283 137.192C132.427 137.324 132.667 137.39 133.003 137.39H134.101ZM140.387 140.144C139.403 140.144 138.515 139.934 137.723 139.514C136.943 139.094 136.325 138.494 135.869 137.714C135.425 136.934 135.203 136.022 135.203 134.978C135.203 133.946 135.431 133.04 135.887 132.26C136.343 131.468 136.967 130.862 137.759 130.442C138.551 130.022 139.439 129.812 140.423 129.812C141.407 129.812 142.295 130.022 143.087 130.442C143.879 130.862 144.503 131.468 144.959 132.26C145.415 133.04 145.643 133.946 145.643 134.978C145.643 136.01 145.409 136.922 144.941 137.714C144.485 138.494 143.855 139.094 143.051 139.514C142.259 139.934 141.371 140.144 140.387 140.144ZM140.387 137.48C140.975 137.48 141.473 137.264 141.881 136.832C142.301 136.4 142.511 135.782 142.511 134.978C142.511 134.174 142.307 133.556 141.899 133.124C141.503 132.692 141.011 132.476 140.423 132.476C139.823 132.476 139.325 132.692 138.929 133.124C138.533 133.544 138.335 134.162 138.335 134.978C138.335 135.782 138.527 136.4 138.911 136.832C139.307 137.264 139.799 137.48 140.387 137.48ZM150.354 131.378C150.654 130.91 151.068 130.532 151.596 130.244C152.124 129.956 152.742 129.812 153.45 129.812C154.278 129.812 155.028 130.022 155.7 130.442C156.372 130.862 156.9 131.462 157.284 132.242C157.68 133.022 157.878 133.928 157.878 134.96C157.878 135.992 157.68 136.904 157.284 137.696C156.9 138.476 156.372 139.082 155.7 139.514C155.028 139.934 154.278 140.144 153.45 140.144C152.754 140.144 152.136 140 151.596 139.712C151.068 139.424 150.654 139.052 150.354 138.596V144.788H147.276V129.956H150.354V131.378ZM154.746 134.96C154.746 134.192 154.53 133.592 154.098 133.16C153.678 132.716 153.156 132.494 152.532 132.494C151.92 132.494 151.398 132.716 150.966 133.16C150.546 133.604 150.336 134.21 150.336 134.978C150.336 135.746 150.546 136.352 150.966 136.796C151.398 137.24 151.92 137.462 152.532 137.462C153.144 137.462 153.666 137.24 154.098 136.796C154.53 136.34 154.746 135.728 154.746 134.96ZM167.879 140.126C166.955 140.126 166.127 139.976 165.395 139.676C164.663 139.376 164.075 138.932 163.631 138.344C163.199 137.756 162.971 137.048 162.947 136.22H166.223C166.271 136.688 166.433 137.048 166.709 137.3C166.985 137.54 167.345 137.66 167.789 137.66C168.245 137.66 168.605 137.558 168.869 137.354C169.133 137.138 169.265 136.844 169.265 136.472C169.265 136.16 169.157 135.902 168.941 135.698C168.737 135.494 168.479 135.326 168.167 135.194C167.867 135.062 167.435 134.912 166.871 134.744C166.055 134.492 165.389 134.24 164.873 133.988C164.357 133.736 163.913 133.364 163.541 132.872C163.169 132.38 162.983 131.738 162.983 130.946C162.983 129.77 163.409 128.852 164.261 128.192C165.113 127.52 166.223 127.184 167.591 127.184C168.983 127.184 170.105 127.52 170.957 128.192C171.809 128.852 172.265 129.776 172.325 130.964H168.995C168.971 130.556 168.821 130.238 168.545 130.01C168.269 129.77 167.915 129.65 167.483 129.65C167.111 129.65 166.811 129.752 166.583 129.956C166.355 130.148 166.241 130.43 166.241 130.802C166.241 131.21 166.433 131.528 166.817 131.756C167.201 131.984 167.801 132.23 168.617 132.494C169.433 132.77 170.093 133.034 170.597 133.286C171.113 133.538 171.557 133.904 171.929 134.384C172.301 134.864 172.487 135.482 172.487 136.238C172.487 136.958 172.301 137.612 171.929 138.2C171.569 138.788 171.041 139.256 170.345 139.604C169.649 139.952 168.827 140.126 167.879 140.126ZM180.556 129.848C181.708 129.848 182.632 130.232 183.328 131C184.024 131.756 184.372 132.8 184.372 134.132V140H181.312V134.546C181.312 133.874 181.138 133.352 180.79 132.98C180.442 132.608 179.974 132.422 179.386 132.422C178.798 132.422 178.33 132.608 177.982 132.98C177.634 133.352 177.46 133.874 177.46 134.546V140H174.382V126.68H177.46V131.306C177.772 130.862 178.198 130.508 178.738 130.244C179.278 129.98 179.884 129.848 180.556 129.848ZM191.083 140.144C190.099 140.144 189.211 139.934 188.419 139.514C187.639 139.094 187.021 138.494 186.565 137.714C186.121 136.934 185.899 136.022 185.899 134.978C185.899 133.946 186.127 133.04 186.583 132.26C187.039 131.468 187.663 130.862 188.455 130.442C189.247 130.022 190.135 129.812 191.119 129.812C192.103 129.812 192.991 130.022 193.783 130.442C194.575 130.862 195.199 131.468 195.655 132.26C196.111 133.04 196.339 133.946 196.339 134.978C196.339 136.01 196.105 136.922 195.637 137.714C195.181 138.494 194.551 139.094 193.747 139.514C192.955 139.934 192.067 140.144 191.083 140.144ZM191.083 137.48C191.671 137.48 192.169 137.264 192.577 136.832C192.997 136.4 193.207 135.782 193.207 134.978C193.207 134.174 193.003 133.556 192.595 133.124C192.199 132.692 191.707 132.476 191.119 132.476C190.519 132.476 190.021 132.692 189.625 133.124C189.229 133.544 189.031 134.162 189.031 134.978C189.031 135.782 189.223 136.4 189.607 136.832C190.003 137.264 190.495 137.48 191.083 137.48ZM201.049 131.378C201.349 130.91 201.763 130.532 202.291 130.244C202.819 129.956 203.437 129.812 204.145 129.812C204.973 129.812 205.723 130.022 206.395 130.442C207.067 130.862 207.595 131.462 207.979 132.242C208.375 133.022 208.573 133.928 208.573 134.96C208.573 135.992 208.375 136.904 207.979 137.696C207.595 138.476 207.067 139.082 206.395 139.514C205.723 139.934 204.973 140.144 204.145 140.144C203.449 140.144 202.831 140 202.291 139.712C201.763 139.424 201.349 139.052 201.049 138.596V144.788H197.971V129.956H201.049V131.378ZM205.441 134.96C205.441 134.192 205.225 133.592 204.793 133.16C204.373 132.716 203.851 132.494 203.227 132.494C202.615 132.494 202.093 132.716 201.661 133.16C201.241 133.604 201.031 134.21 201.031 134.978C201.031 135.746 201.241 136.352 201.661 136.796C202.093 137.24 202.615 137.462 203.227 137.462C203.839 137.462 204.361 137.24 204.793 136.796C205.225 136.34 205.441 135.728 205.441 134.96ZM213.266 131.378C213.566 130.91 213.98 130.532 214.508 130.244C215.036 129.956 215.654 129.812 216.362 129.812C217.19 129.812 217.94 130.022 218.612 130.442C219.284 130.862 219.812 131.462 220.196 132.242C220.592 133.022 220.79 133.928 220.79 134.96C220.79 135.992 220.592 136.904 220.196 137.696C219.812 138.476 219.284 139.082 218.612 139.514C217.94 139.934 217.19 140.144 216.362 140.144C215.666 140.144 215.048 140 214.508 139.712C213.98 139.424 213.566 139.052 213.266 138.596V144.788H210.188V129.956H213.266V131.378ZM217.658 134.96C217.658 134.192 217.442 133.592 217.01 133.16C216.59 132.716 216.068 132.494 215.444 132.494C214.832 132.494 214.31 132.716 213.878 133.16C213.458 133.604 213.248 134.21 213.248 134.978C213.248 135.746 213.458 136.352 213.878 136.796C214.31 137.24 214.832 137.462 215.444 137.462C216.056 137.462 216.578 137.24 217.01 136.796C217.442 136.34 217.658 135.728 217.658 134.96ZM223.953 128.912C223.413 128.912 222.969 128.756 222.621 128.444C222.285 128.12 222.117 127.724 222.117 127.256C222.117 126.776 222.285 126.38 222.621 126.068C222.969 125.744 223.413 125.582 223.953 125.582C224.481 125.582 224.913 125.744 225.249 126.068C225.597 126.38 225.771 126.776 225.771 127.256C225.771 127.724 225.597 128.12 225.249 128.444C224.913 128.756 224.481 128.912 223.953 128.912ZM225.483 129.956V140H222.405V129.956H225.483ZM233.834 129.848C235.01 129.848 235.946 130.232 236.642 131C237.35 131.756 237.704 132.8 237.704 134.132V140H234.644V134.546C234.644 133.874 234.47 133.352 234.122 132.98C233.774 132.608 233.306 132.422 232.718 132.422C232.13 132.422 231.662 132.608 231.314 132.98C230.966 133.352 230.792 133.874 230.792 134.546V140H227.714V129.956H230.792V131.288C231.104 130.844 231.524 130.496 232.052 130.244C232.58 129.98 233.174 129.848 233.834 129.848ZM243.659 129.812C244.367 129.812 244.985 129.956 245.513 130.244C246.053 130.532 246.467 130.91 246.755 131.378V129.956H249.833V139.982C249.833 140.906 249.647 141.74 249.275 142.484C248.915 143.24 248.357 143.84 247.601 144.284C246.857 144.728 245.927 144.95 244.811 144.95C243.323 144.95 242.117 144.596 241.193 143.888C240.269 143.192 239.741 142.244 239.609 141.044H242.651C242.747 141.428 242.975 141.728 243.335 141.944C243.695 142.172 244.139 142.286 244.667 142.286C245.303 142.286 245.807 142.1 246.179 141.728C246.563 141.368 246.755 140.786 246.755 139.982V138.56C246.455 139.028 246.041 139.412 245.513 139.712C244.985 140 244.367 140.144 243.659 140.144C242.831 140.144 242.081 139.934 241.409 139.514C240.737 139.082 240.203 138.476 239.807 137.696C239.423 136.904 239.231 135.992 239.231 134.96C239.231 133.928 239.423 133.022 239.807 132.242C240.203 131.462 240.737 130.862 241.409 130.442C242.081 130.022 242.831 129.812 243.659 129.812ZM246.755 134.978C246.755 134.21 246.539 133.604 246.107 133.16C245.687 132.716 245.171 132.494 244.559 132.494C243.947 132.494 243.425 132.716 242.993 133.16C242.573 133.592 242.363 134.192 242.363 134.96C242.363 135.728 242.573 136.34 242.993 136.796C243.425 137.24 243.947 137.462 244.559 137.462C245.171 137.462 245.687 137.24 246.107 136.796C246.539 136.352 246.755 135.746 246.755 134.978ZM260.446 140.126C259.522 140.126 258.694 139.976 257.962 139.676C257.23 139.376 256.642 138.932 256.198 138.344C255.766 137.756 255.538 137.048 255.514 136.22H258.79C258.838 136.688 259 137.048 259.276 137.3C259.552 137.54 259.912 137.66 260.356 137.66C260.812 137.66 261.172 137.558 261.436 137.354C261.7 137.138 261.832 136.844 261.832 136.472C261.832 136.16 261.724 135.902 261.508 135.698C261.304 135.494 261.046 135.326 260.734 135.194C260.434 135.062 260.002 134.912 259.438 134.744C258.622 134.492 257.956 134.24 257.44 133.988C256.924 133.736 256.48 133.364 256.108 132.872C255.736 132.38 255.55 131.738 255.55 130.946C255.55 129.77 255.976 128.852 256.828 128.192C257.68 127.52 258.79 127.184 260.158 127.184C261.55 127.184 262.672 127.52 263.524 128.192C264.376 128.852 264.832 129.776 264.892 130.964H261.562C261.538 130.556 261.388 130.238 261.112 130.01C260.836 129.77 260.482 129.65 260.05 129.65C259.678 129.65 259.378 129.752 259.15 129.956C258.922 130.148 258.808 130.43 258.808 130.802C258.808 131.21 259 131.528 259.384 131.756C259.768 131.984 260.368 132.23 261.184 132.494C262 132.77 262.66 133.034 263.164 133.286C263.68 133.538 264.124 133.904 264.496 134.384C264.868 134.864 265.054 135.482 265.054 136.238C265.054 136.958 264.868 137.612 264.496 138.2C264.136 138.788 263.608 139.256 262.912 139.604C262.216 139.952 261.394 140.126 260.446 140.126ZM271.52 140.144C270.536 140.144 269.648 139.934 268.856 139.514C268.076 139.094 267.458 138.494 267.002 137.714C266.558 136.934 266.336 136.022 266.336 134.978C266.336 133.946 266.564 133.04 267.02 132.26C267.476 131.468 268.1 130.862 268.892 130.442C269.684 130.022 270.572 129.812 271.556 129.812C272.54 129.812 273.428 130.022 274.22 130.442C275.012 130.862 275.636 131.468 276.092 132.26C276.548 133.04 276.776 133.946 276.776 134.978C276.776 136.01 276.542 136.922 276.074 137.714C275.618 138.494 274.988 139.094 274.184 139.514C273.392 139.934 272.504 140.144 271.52 140.144ZM271.52 137.48C272.108 137.48 272.606 137.264 273.014 136.832C273.434 136.4 273.644 135.782 273.644 134.978C273.644 134.174 273.44 133.556 273.032 133.124C272.636 132.692 272.144 132.476 271.556 132.476C270.956 132.476 270.458 132.692 270.062 133.124C269.666 133.544 269.468 134.162 269.468 134.978C269.468 135.782 269.66 136.4 270.044 136.832C270.44 137.264 270.932 137.48 271.52 137.48ZM281.487 126.68V140H278.409V126.68H281.487ZM293.636 129.956V140H290.558V138.632C290.246 139.076 289.82 139.436 289.28 139.712C288.752 139.976 288.164 140.108 287.516 140.108C286.748 140.108 286.07 139.94 285.482 139.604C284.894 139.256 284.438 138.758 284.114 138.11C283.79 137.462 283.628 136.7 283.628 135.824V129.956H286.688V135.41C286.688 136.082 286.862 136.604 287.21 136.976C287.558 137.348 288.026 137.534 288.614 137.534C289.214 137.534 289.688 137.348 290.036 136.976C290.384 136.604 290.558 136.082 290.558 135.41V129.956H293.636ZM301.444 137.39V140H299.878C298.762 140 297.892 139.73 297.268 139.19C296.644 138.638 296.332 137.744 296.332 136.508V132.512H295.108V129.956H296.332V127.508H299.41V129.956H301.426V132.512H299.41V136.544C299.41 136.844 299.482 137.06 299.626 137.192C299.77 137.324 300.01 137.39 300.346 137.39H301.444ZM304.707 128.912C304.167 128.912 303.723 128.756 303.375 128.444C303.039 128.12 302.871 127.724 302.871 127.256C302.871 126.776 303.039 126.38 303.375 126.068C303.723 125.744 304.167 125.582 304.707 125.582C305.235 125.582 305.667 125.744 306.003 126.068C306.351 126.38 306.525 126.776 306.525 127.256C306.525 127.724 306.351 128.12 306.003 128.444C305.667 128.756 305.235 128.912 304.707 128.912ZM306.237 129.956V140H303.159V129.956H306.237ZM313.04 140.144C312.056 140.144 311.168 139.934 310.376 139.514C309.596 139.094 308.978 138.494 308.522 137.714C308.078 136.934 307.856 136.022 307.856 134.978C307.856 133.946 308.084 133.04 308.54 132.26C308.996 131.468 309.62 130.862 310.412 130.442C311.204 130.022 312.092 129.812 313.076 129.812C314.06 129.812 314.948 130.022 315.74 130.442C316.532 130.862 317.156 131.468 317.612 132.26C318.068 133.04 318.296 133.946 318.296 134.978C318.296 136.01 318.062 136.922 317.594 137.714C317.138 138.494 316.508 139.094 315.704 139.514C314.912 139.934 314.024 140.144 313.04 140.144ZM313.04 137.48C313.628 137.48 314.126 137.264 314.534 136.832C314.954 136.4 315.164 135.782 315.164 134.978C315.164 134.174 314.96 133.556 314.552 133.124C314.156 132.692 313.664 132.476 313.076 132.476C312.476 132.476 311.978 132.692 311.582 133.124C311.186 133.544 310.988 134.162 310.988 134.978C310.988 135.782 311.18 136.4 311.564 136.832C311.96 137.264 312.452 137.48 313.04 137.48ZM326.049 129.848C327.225 129.848 328.161 130.232 328.857 131C329.565 131.756 329.919 132.8 329.919 134.132V140H326.859V134.546C326.859 133.874 326.685 133.352 326.337 132.98C325.989 132.608 325.521 132.422 324.933 132.422C324.345 132.422 323.877 132.608 323.529 132.98C323.181 133.352 323.007 133.874 323.007 134.546V140H319.929V129.956H323.007V131.288C323.319 130.844 323.739 130.496 324.267 130.244C324.795 129.98 325.389 129.848 326.049 129.848Z" fill="black"/>
<path d="M52.6693 166.49L48.9613 179H46.6393L44.0113 169.532L41.2213 179L38.9173 179.018L35.3713 166.49H37.5493L40.1413 176.678L42.9493 166.49H45.2533L47.8633 176.624L50.4733 166.49H52.6693ZM63.4517 173.798C63.4517 174.17 63.4277 174.506 63.3797 174.806H55.8017C55.8617 175.598 56.1557 176.234 56.6837 176.714C57.2117 177.194 57.8597 177.434 58.6277 177.434C59.7317 177.434 60.5117 176.972 60.9677 176.048H63.1817C62.8817 176.96 62.3357 177.71 61.5437 178.298C60.7637 178.874 59.7917 179.162 58.6277 179.162C57.6797 179.162 56.8277 178.952 56.0717 178.532C55.3277 178.1 54.7397 177.5 54.3077 176.732C53.8877 175.952 53.6777 175.052 53.6777 174.032C53.6777 173.012 53.8817 172.118 54.2897 171.35C54.7097 170.57 55.2917 169.97 56.0357 169.55C56.7917 169.13 57.6557 168.92 58.6277 168.92C59.5637 168.92 60.3977 169.124 61.1297 169.532C61.8617 169.94 62.4317 170.516 62.8397 171.26C63.2477 171.992 63.4517 172.838 63.4517 173.798ZM61.3097 173.15C61.2977 172.394 61.0277 171.788 60.4997 171.332C59.9717 170.876 59.3177 170.648 58.5377 170.648C57.8297 170.648 57.2237 170.876 56.7197 171.332C56.2157 171.776 55.9157 172.382 55.8197 173.15H61.3097ZM74.1429 168.92C74.9109 168.92 75.5889 169.076 76.1769 169.388C76.7769 169.688 77.2449 170.066 77.5809 170.522V169.082H79.6509V179.162C79.6509 180.074 79.4589 180.884 79.0749 181.592C78.6909 182.312 78.1329 182.876 77.4009 183.284C76.6809 183.692 75.8169 183.896 74.8089 183.896C73.4649 183.896 72.3489 183.578 71.4609 182.942C70.5729 182.318 70.0689 181.466 69.9489 180.386H71.9829C72.1389 180.902 72.4689 181.316 72.9729 181.628C73.4889 181.952 74.1009 182.114 74.8089 182.114C75.6369 182.114 76.3029 181.862 76.8069 181.358C77.3229 180.854 77.5809 180.122 77.5809 179.162V177.506C77.2329 177.974 76.7589 178.37 76.1589 178.694C75.5709 179.006 74.8989 179.162 74.1429 179.162C73.2789 179.162 72.4869 178.946 71.7669 178.514C71.0589 178.07 70.4949 177.458 70.0749 176.678C69.6669 175.886 69.4629 174.992 69.4629 173.996C69.4629 173 69.6669 172.118 70.0749 171.35C70.4949 170.582 71.0589 169.988 71.7669 169.568C72.4869 169.136 73.2789 168.92 74.1429 168.92ZM77.5809 174.032C77.5809 173.348 77.4369 172.754 77.1489 172.25C76.8729 171.746 76.5069 171.362 76.0509 171.098C75.5949 170.834 75.1029 170.702 74.5749 170.702C74.0469 170.702 73.5549 170.834 73.0989 171.098C72.6429 171.35 72.2709 171.728 71.9829 172.232C71.7069 172.724 71.5689 173.312 71.5689 173.996C71.5689 174.68 71.7069 175.28 71.9829 175.796C72.2709 176.312 72.6429 176.708 73.0989 176.984C73.5669 177.248 74.0589 177.38 74.5749 177.38C75.1029 177.38 75.5949 177.248 76.0509 176.984C76.5069 176.72 76.8729 176.336 77.1489 175.832C77.4369 175.316 77.5809 174.716 77.5809 174.032ZM81.6621 173.996C81.6621 173 81.8661 172.118 82.2741 171.35C82.6941 170.582 83.2581 169.988 83.9661 169.568C84.6861 169.136 85.4781 168.92 86.3421 168.92C87.1221 168.92 87.8001 169.076 88.3761 169.388C88.9641 169.688 89.4321 170.066 89.7801 170.522V169.082H91.8501V179H89.7801V177.524C89.4321 177.992 88.9581 178.382 88.3581 178.694C87.7581 179.006 87.0741 179.162 86.3061 179.162C85.4541 179.162 84.6741 178.946 83.9661 178.514C83.2581 178.07 82.6941 177.458 82.2741 176.678C81.8661 175.886 81.6621 174.992 81.6621 173.996ZM89.7801 174.032C89.7801 173.348 89.6361 172.754 89.3481 172.25C89.0721 171.746 88.7061 171.362 88.2501 171.098C87.7941 170.834 87.3021 170.702 86.7741 170.702C86.2461 170.702 85.7541 170.834 85.2981 171.098C84.8421 171.35 84.4701 171.728 84.1821 172.232C83.9061 172.724 83.7681 173.312 83.7681 173.996C83.7681 174.68 83.9061 175.28 84.1821 175.796C84.4701 176.312 84.8421 176.708 85.2981 176.984C85.7661 177.248 86.2581 177.38 86.7741 177.38C87.3021 177.38 87.7941 177.248 88.2501 176.984C88.7061 176.72 89.0721 176.336 89.3481 175.832C89.6361 175.316 89.7801 174.716 89.7801 174.032ZM96.9393 170.756V176.246C96.9393 176.618 97.0233 176.888 97.1913 177.056C97.3713 177.212 97.6713 177.29 98.0913 177.29H99.3513V179H97.7313C96.8073 179 96.0993 178.784 95.6073 178.352C95.1153 177.92 94.8693 177.218 94.8693 176.246V170.756H93.6993V169.082H94.8693V166.616H96.9393V169.082H99.3513V170.756H96.9393ZM106.373 168.92C107.129 168.92 107.801 169.082 108.389 169.406C108.989 169.73 109.457 170.21 109.793 170.846C110.141 171.482 110.315 172.25 110.315 173.15V179H108.281V173.456C108.281 172.568 108.059 171.89 107.615 171.422C107.171 170.942 106.565 170.702 105.797 170.702C105.029 170.702 104.417 170.942 103.961 171.422C103.517 171.89 103.295 172.568 103.295 173.456V179H101.243V165.68H103.295V170.234C103.643 169.814 104.081 169.49 104.609 169.262C105.149 169.034 105.737 168.92 106.373 168.92ZM122.022 173.798C122.022 174.17 121.998 174.506 121.95 174.806H114.372C114.432 175.598 114.726 176.234 115.254 176.714C115.782 177.194 116.43 177.434 117.198 177.434C118.302 177.434 119.082 176.972 119.538 176.048H121.752C121.452 176.96 120.906 177.71 120.114 178.298C119.334 178.874 118.362 179.162 117.198 179.162C116.25 179.162 115.398 178.952 114.642 178.532C113.898 178.1 113.31 177.5 112.878 176.732C112.458 175.952 112.248 175.052 112.248 174.032C112.248 173.012 112.452 172.118 112.86 171.35C113.28 170.57 113.862 169.97 114.606 169.55C115.362 169.13 116.226 168.92 117.198 168.92C118.134 168.92 118.968 169.124 119.7 169.532C120.432 169.94 121.002 170.516 121.41 171.26C121.818 171.992 122.022 172.838 122.022 173.798ZM119.88 173.15C119.868 172.394 119.598 171.788 119.07 171.332C118.542 170.876 117.888 170.648 117.108 170.648C116.4 170.648 115.794 170.876 115.29 171.332C114.786 171.776 114.486 172.382 114.39 173.15H119.88ZM126.093 170.522C126.393 170.018 126.789 169.628 127.281 169.352C127.785 169.064 128.379 168.92 129.063 168.92V171.044H128.541C127.737 171.044 127.125 171.248 126.705 171.656C126.297 172.064 126.093 172.772 126.093 173.78V179H124.041V169.082H126.093V170.522ZM137.677 170.54C138.025 170.084 138.499 169.7 139.099 169.388C139.699 169.076 140.377 168.92 141.133 168.92C141.997 168.92 142.783 169.136 143.491 169.568C144.211 169.988 144.775 170.582 145.183 171.35C145.591 172.118 145.795 173 145.795 173.996C145.795 174.992 145.591 175.886 145.183 176.678C144.775 177.458 144.211 178.07 143.491 178.514C142.783 178.946 141.997 179.162 141.133 179.162C140.377 179.162 139.705 179.012 139.117 178.712C138.529 178.4 138.049 178.016 137.677 177.56V183.716H135.625V169.082H137.677V170.54ZM143.707 173.996C143.707 173.312 143.563 172.724 143.275 172.232C142.999 171.728 142.627 171.35 142.159 171.098C141.703 170.834 141.211 170.702 140.683 170.702C140.167 170.702 139.675 170.834 139.207 171.098C138.751 171.362 138.379 171.746 138.091 172.25C137.815 172.754 137.677 173.348 137.677 174.032C137.677 174.716 137.815 175.316 138.091 175.832C138.379 176.336 138.751 176.72 139.207 176.984C139.675 177.248 140.167 177.38 140.683 177.38C141.211 177.38 141.703 177.248 142.159 176.984C142.627 176.708 142.999 176.312 143.275 175.796C143.563 175.28 143.707 174.68 143.707 173.996ZM149.877 170.522C150.177 170.018 150.573 169.628 151.065 169.352C151.569 169.064 152.163 168.92 152.847 168.92V171.044H152.325C151.521 171.044 150.909 171.248 150.489 171.656C150.081 172.064 149.877 172.772 149.877 173.78V179H147.825V169.082H149.877V170.522ZM159.035 179.162C158.099 179.162 157.253 178.952 156.497 178.532C155.741 178.1 155.147 177.5 154.715 176.732C154.283 175.952 154.067 175.052 154.067 174.032C154.067 173.024 154.289 172.13 154.733 171.35C155.177 170.57 155.783 169.97 156.551 169.55C157.319 169.13 158.177 168.92 159.125 168.92C160.073 168.92 160.931 169.13 161.699 169.55C162.467 169.97 163.073 170.57 163.517 171.35C163.961 172.13 164.183 173.024 164.183 174.032C164.183 175.04 163.955 175.934 163.499 176.714C163.043 177.494 162.419 178.1 161.627 178.532C160.847 178.952 159.983 179.162 159.035 179.162ZM159.035 177.38C159.563 177.38 160.055 177.254 160.511 177.002C160.979 176.75 161.357 176.372 161.645 175.868C161.933 175.364 162.077 174.752 162.077 174.032C162.077 173.312 161.939 172.706 161.663 172.214C161.387 171.71 161.021 171.332 160.565 171.08C160.109 170.828 159.617 170.702 159.089 170.702C158.561 170.702 158.069 170.828 157.613 171.08C157.169 171.332 156.815 171.71 156.551 172.214C156.287 172.706 156.155 173.312 156.155 174.032C156.155 175.1 156.425 175.928 156.965 176.516C157.517 177.092 158.207 177.38 159.035 177.38ZM165.527 173.996C165.527 173 165.731 172.118 166.139 171.35C166.559 170.582 167.123 169.988 167.831 169.568C168.551 169.136 169.349 168.92 170.225 168.92C170.873 168.92 171.509 169.064 172.133 169.352C172.769 169.628 173.273 170 173.645 170.468V165.68H175.715V179H173.645V177.506C173.309 177.986 172.841 178.382 172.241 178.694C171.653 179.006 170.975 179.162 170.207 179.162C169.343 179.162 168.551 178.946 167.831 178.514C167.123 178.07 166.559 177.458 166.139 176.678C165.731 175.886 165.527 174.992 165.527 173.996ZM173.645 174.032C173.645 173.348 173.501 172.754 173.213 172.25C172.937 171.746 172.571 171.362 172.115 171.098C171.659 170.834 171.167 170.702 170.639 170.702C170.111 170.702 169.619 170.834 169.163 171.098C168.707 171.35 168.335 171.728 168.047 172.232C167.771 172.724 167.633 173.312 167.633 173.996C167.633 174.68 167.771 175.28 168.047 175.796C168.335 176.312 168.707 176.708 169.163 176.984C169.631 177.248 170.123 177.38 170.639 177.38C171.167 177.38 171.659 177.248 172.115 176.984C172.571 176.72 172.937 176.336 173.213 175.832C173.501 175.316 173.645 174.716 173.645 174.032ZM187.393 169.082V179H185.341V177.83C185.017 178.238 184.591 178.562 184.063 178.802C183.547 179.03 182.995 179.144 182.407 179.144C181.627 179.144 180.925 178.982 180.301 178.658C179.689 178.334 179.203 177.854 178.843 177.218C178.495 176.582 178.321 175.814 178.321 174.914V169.082H180.355V174.608C180.355 175.496 180.577 176.18 181.021 176.66C181.465 177.128 182.071 177.362 182.839 177.362C183.607 177.362 184.213 177.128 184.657 176.66C185.113 176.18 185.341 175.496 185.341 174.608V169.082H187.393ZM189.416 174.032C189.416 173.012 189.62 172.118 190.028 171.35C190.448 170.57 191.024 169.97 191.756 169.55C192.488 169.13 193.328 168.92 194.276 168.92C195.476 168.92 196.466 169.208 197.246 169.784C198.038 170.348 198.572 171.158 198.848 172.214H196.634C196.454 171.722 196.166 171.338 195.77 171.062C195.374 170.786 194.876 170.648 194.276 170.648C193.436 170.648 192.764 170.948 192.26 171.548C191.768 172.136 191.522 172.964 191.522 174.032C191.522 175.1 191.768 175.934 192.26 176.534C192.764 177.134 193.436 177.434 194.276 177.434C195.464 177.434 196.25 176.912 196.634 175.868H198.848C198.56 176.876 198.02 177.68 197.228 178.28C196.436 178.868 195.452 179.162 194.276 179.162C193.328 179.162 192.488 178.952 191.756 178.532C191.024 178.1 190.448 177.5 190.028 176.732C189.62 175.952 189.416 175.052 189.416 174.032ZM203.287 170.756V176.246C203.287 176.618 203.371 176.888 203.539 177.056C203.719 177.212 204.019 177.29 204.439 177.29H205.699V179H204.079C203.155 179 202.447 178.784 201.955 178.352C201.463 177.92 201.217 177.218 201.217 176.246V170.756H200.047V169.082H201.217V166.616H203.287V169.082H205.699V170.756H203.287ZM213.31 167.768C212.938 167.768 212.626 167.642 212.374 167.39C212.122 167.138 211.996 166.826 211.996 166.454C211.996 166.082 212.122 165.77 212.374 165.518C212.626 165.266 212.938 165.14 213.31 165.14C213.67 165.14 213.976 165.266 214.228 165.518C214.48 165.77 214.606 166.082 214.606 166.454C214.606 166.826 214.48 167.138 214.228 167.39C213.976 167.642 213.67 167.768 213.31 167.768ZM214.318 169.082V179H212.266V169.082H214.318ZM222.016 168.92C222.796 168.92 223.492 169.082 224.104 169.406C224.728 169.73 225.214 170.21 225.562 170.846C225.91 171.482 226.084 172.25 226.084 173.15V179H224.05V173.456C224.05 172.568 223.828 171.89 223.384 171.422C222.94 170.942 222.334 170.702 221.566 170.702C220.798 170.702 220.186 170.942 219.73 171.422C219.286 171.89 219.064 172.568 219.064 173.456V179H217.012V169.082H219.064V170.216C219.4 169.808 219.826 169.49 220.342 169.262C220.87 169.034 221.428 168.92 222.016 168.92ZM232.86 170.756H231.024V179H228.954V170.756H227.784V169.082H228.954V168.38C228.954 167.24 229.254 166.412 229.854 165.896C230.466 165.368 231.42 165.104 232.716 165.104V166.814C232.092 166.814 231.654 166.934 231.402 167.174C231.15 167.402 231.024 167.804 231.024 168.38V169.082H232.86V170.756ZM238.98 179.162C238.044 179.162 237.198 178.952 236.442 178.532C235.686 178.1 235.092 177.5 234.66 176.732C234.228 175.952 234.012 175.052 234.012 174.032C234.012 173.024 234.234 172.13 234.678 171.35C235.122 170.57 235.728 169.97 236.496 169.55C237.264 169.13 238.122 168.92 239.07 168.92C240.018 168.92 240.876 169.13 241.644 169.55C242.412 169.97 243.018 170.57 243.462 171.35C243.906 172.13 244.128 173.024 244.128 174.032C244.128 175.04 243.9 175.934 243.444 176.714C242.988 177.494 242.364 178.1 241.572 178.532C240.792 178.952 239.928 179.162 238.98 179.162ZM238.98 177.38C239.508 177.38 240 177.254 240.456 177.002C240.924 176.75 241.302 176.372 241.59 175.868C241.878 175.364 242.022 174.752 242.022 174.032C242.022 173.312 241.884 172.706 241.608 172.214C241.332 171.71 240.966 171.332 240.51 171.08C240.054 170.828 239.562 170.702 239.034 170.702C238.506 170.702 238.014 170.828 237.558 171.08C237.114 171.332 236.76 171.71 236.496 172.214C236.232 172.706 236.1 173.312 236.1 174.032C236.1 175.1 236.37 175.928 236.91 176.516C237.462 177.092 238.152 177.38 238.98 177.38ZM248.209 170.522C248.509 170.018 248.905 169.628 249.397 169.352C249.901 169.064 250.495 168.92 251.179 168.92V171.044H250.657C249.853 171.044 249.241 171.248 248.821 171.656C248.413 172.064 248.209 172.772 248.209 173.78V179H246.157V169.082H248.209V170.522ZM265.071 168.92C265.851 168.92 266.547 169.082 267.159 169.406C267.783 169.73 268.269 170.21 268.617 170.846C268.977 171.482 269.157 172.25 269.157 173.15V179H267.123V173.456C267.123 172.568 266.901 171.89 266.457 171.422C266.013 170.942 265.407 170.702 264.639 170.702C263.871 170.702 263.259 170.942 262.803 171.422C262.359 171.89 262.137 172.568 262.137 173.456V179H260.103V173.456C260.103 172.568 259.881 171.89 259.437 171.422C258.993 170.942 258.387 170.702 257.619 170.702C256.851 170.702 256.239 170.942 255.783 171.422C255.339 171.89 255.117 172.568 255.117 173.456V179H253.065V169.082H255.117V170.216C255.453 169.808 255.879 169.49 256.395 169.262C256.911 169.034 257.463 168.92 258.051 168.92C258.843 168.92 259.551 169.088 260.175 169.424C260.799 169.76 261.279 170.246 261.615 170.882C261.915 170.282 262.383 169.808 263.019 169.46C263.655 169.1 264.339 168.92 265.071 168.92ZM271.084 173.996C271.084 173 271.288 172.118 271.696 171.35C272.116 170.582 272.68 169.988 273.388 169.568C274.108 169.136 274.9 168.92 275.764 168.92C276.544 168.92 277.222 169.076 277.798 169.388C278.386 169.688 278.854 170.066 279.202 170.522V169.082H281.272V179H279.202V177.524C278.854 177.992 278.38 178.382 277.78 178.694C277.18 179.006 276.496 179.162 275.728 179.162C274.876 179.162 274.096 178.946 273.388 178.514C272.68 178.07 272.116 177.458 271.696 176.678C271.288 175.886 271.084 174.992 271.084 173.996ZM279.202 174.032C279.202 173.348 279.058 172.754 278.77 172.25C278.494 171.746 278.128 171.362 277.672 171.098C277.216 170.834 276.724 170.702 276.196 170.702C275.668 170.702 275.176 170.834 274.72 171.098C274.264 171.35 273.892 171.728 273.604 172.232C273.328 172.724 273.19 173.312 273.19 173.996C273.19 174.68 273.328 175.28 273.604 175.796C273.892 176.312 274.264 176.708 274.72 176.984C275.188 177.248 275.68 177.38 276.196 177.38C276.724 177.38 277.216 177.248 277.672 176.984C278.128 176.72 278.494 176.336 278.77 175.832C279.058 175.316 279.202 174.716 279.202 174.032ZM286.361 170.756V176.246C286.361 176.618 286.445 176.888 286.613 177.056C286.793 177.212 287.093 177.29 287.513 177.29H288.773V179H287.153C286.229 179 285.521 178.784 285.029 178.352C284.537 177.92 284.291 177.218 284.291 176.246V170.756H283.121V169.082H284.291V166.616H286.361V169.082H288.773V170.756H286.361ZM291.708 167.768C291.336 167.768 291.024 167.642 290.772 167.39C290.52 167.138 290.394 166.826 290.394 166.454C290.394 166.082 290.52 165.77 290.772 165.518C291.024 165.266 291.336 165.14 291.708 165.14C292.068 165.14 292.374 165.266 292.626 165.518C292.878 165.77 293.004 166.082 293.004 166.454C293.004 166.826 292.878 167.138 292.626 167.39C292.374 167.642 292.068 167.768 291.708 167.768ZM292.716 169.082V179H290.664V169.082H292.716ZM299.713 179.162C298.777 179.162 297.931 178.952 297.175 178.532C296.419 178.1 295.825 177.5 295.393 176.732C294.961 175.952 294.745 175.052 294.745 174.032C294.745 173.024 294.967 172.13 295.411 171.35C295.855 170.57 296.461 169.97 297.229 169.55C297.997 169.13 298.855 168.92 299.803 168.92C300.751 168.92 301.609 169.13 302.377 169.55C303.145 169.97 303.751 170.57 304.195 171.35C304.639 172.13 304.861 173.024 304.861 174.032C304.861 175.04 304.633 175.934 304.177 176.714C303.721 177.494 303.097 178.1 302.305 178.532C301.525 178.952 300.661 179.162 299.713 179.162ZM299.713 177.38C300.241 177.38 300.733 177.254 301.189 177.002C301.657 176.75 302.035 176.372 302.323 175.868C302.611 175.364 302.755 174.752 302.755 174.032C302.755 173.312 302.617 172.706 302.341 172.214C302.065 171.71 301.699 171.332 301.243 171.08C300.787 170.828 300.295 170.702 299.767 170.702C299.239 170.702 298.747 170.828 298.291 171.08C297.847 171.332 297.493 171.71 297.229 172.214C296.965 172.706 296.833 173.312 296.833 174.032C296.833 175.1 297.103 175.928 297.643 176.516C298.195 177.092 298.885 177.38 299.713 177.38ZM311.893 168.92C312.673 168.92 313.369 169.082 313.981 169.406C314.605 169.73 315.091 170.21 315.439 170.846C315.787 171.482 315.961 172.25 315.961 173.15V179H313.927V173.456C313.927 172.568 313.705 171.89 313.261 171.422C312.817 170.942 312.211 170.702 311.443 170.702C310.675 170.702 310.063 170.942 309.607 171.422C309.163 171.89 308.941 172.568 308.941 173.456V179H306.889V169.082H308.941V170.216C309.277 169.808 309.703 169.49 310.219 169.262C310.747 169.034 311.305 168.92 311.893 168.92ZM327.412 170.756H325.576V179H323.506V170.756H322.336V169.082H323.506V168.38C323.506 167.24 323.806 166.412 324.406 165.896C325.018 165.368 325.972 165.104 327.268 165.104V166.814C326.644 166.814 326.206 166.934 325.954 167.174C325.702 167.402 325.576 167.804 325.576 168.38V169.082H327.412V170.756ZM331.283 170.522C331.583 170.018 331.979 169.628 332.471 169.352C332.975 169.064 333.569 168.92 334.253 168.92V171.044H333.731C332.927 171.044 332.315 171.248 331.895 171.656C331.487 172.064 331.283 172.772 331.283 173.78V179H329.231V169.082H331.283V170.522ZM340.441 179.162C339.505 179.162 338.659 178.952 337.903 178.532C337.147 178.1 336.553 177.5 336.121 176.732C335.689 175.952 335.473 175.052 335.473 174.032C335.473 173.024 335.695 172.13 336.139 171.35C336.583 170.57 337.189 169.97 337.957 169.55C338.725 169.13 339.583 168.92 340.531 168.92C341.479 168.92 342.337 169.13 343.105 169.55C343.873 169.97 344.479 170.57 344.923 171.35C345.367 172.13 345.589 173.024 345.589 174.032C345.589 175.04 345.361 175.934 344.905 176.714C344.449 177.494 343.825 178.1 343.033 178.532C342.253 178.952 341.389 179.162 340.441 179.162ZM340.441 177.38C340.969 177.38 341.461 177.254 341.917 177.002C342.385 176.75 342.763 176.372 343.051 175.868C343.339 175.364 343.483 174.752 343.483 174.032C343.483 173.312 343.345 172.706 343.069 172.214C342.793 171.71 342.427 171.332 341.971 171.08C341.515 170.828 341.023 170.702 340.495 170.702C339.967 170.702 339.475 170.828 339.019 171.08C338.575 171.332 338.221 171.71 337.957 172.214C337.693 172.706 337.561 173.312 337.561 174.032C337.561 175.1 337.831 175.928 338.371 176.516C338.923 177.092 339.613 177.38 340.441 177.38ZM359.624 168.92C360.404 168.92 361.1 169.082 361.712 169.406C362.336 169.73 362.822 170.21 363.17 170.846C363.53 171.482 363.71 172.25 363.71 173.15V179H361.676V173.456C361.676 172.568 361.454 171.89 361.01 171.422C360.566 170.942 359.96 170.702 359.192 170.702C358.424 170.702 357.812 170.942 357.356 171.422C356.912 171.89 356.69 172.568 356.69 173.456V179H354.656V173.456C354.656 172.568 354.434 171.89 353.99 171.422C353.546 170.942 352.94 170.702 352.172 170.702C351.404 170.702 350.792 170.942 350.336 171.422C349.892 171.89 349.67 172.568 349.67 173.456V179H347.618V169.082H349.67V170.216C350.006 169.808 350.432 169.49 350.948 169.262C351.464 169.034 352.016 168.92 352.604 168.92C353.396 168.92 354.104 169.088 354.728 169.424C355.352 169.76 355.832 170.246 356.168 170.882C356.468 170.282 356.936 169.808 357.572 169.46C358.208 169.1 358.892 168.92 359.624 168.92ZM22.2309 204.164L25.0389 196.082H27.2169L23.4369 206H20.9889L17.2269 196.082H19.4229L22.2309 204.164ZM28.084 200.996C28.084 200 28.288 199.118 28.696 198.35C29.116 197.582 29.68 196.988 30.388 196.568C31.108 196.136 31.9 195.92 32.764 195.92C33.544 195.92 34.222 196.076 34.798 196.388C35.386 196.688 35.854 197.066 36.202 197.522V196.082H38.272V206H36.202V204.524C35.854 204.992 35.38 205.382 34.78 205.694C34.18 206.006 33.496 206.162 32.728 206.162C31.876 206.162 31.096 205.946 30.388 205.514C29.68 205.07 29.116 204.458 28.696 203.678C28.288 202.886 28.084 201.992 28.084 200.996ZM36.202 201.032C36.202 200.348 36.058 199.754 35.77 199.25C35.494 198.746 35.128 198.362 34.672 198.098C34.216 197.834 33.724 197.702 33.196 197.702C32.668 197.702 32.176 197.834 31.72 198.098C31.264 198.35 30.892 198.728 30.604 199.232C30.328 199.724 30.19 200.312 30.19 200.996C30.19 201.68 30.328 202.28 30.604 202.796C30.892 203.312 31.264 203.708 31.72 203.984C32.188 204.248 32.68 204.38 33.196 204.38C33.724 204.38 34.216 204.248 34.672 203.984C35.128 203.72 35.494 203.336 35.77 202.832C36.058 202.316 36.202 201.716 36.202 201.032ZM43.0192 197.522C43.3192 197.018 43.7152 196.628 44.2072 196.352C44.7112 196.064 45.3052 195.92 45.9892 195.92V198.044H45.4672C44.6632 198.044 44.0512 198.248 43.6312 198.656C43.2232 199.064 43.0192 199.772 43.0192 200.78V206H40.9672V196.082H43.0192V197.522ZM48.9194 194.768C48.5474 194.768 48.2354 194.642 47.9834 194.39C47.7314 194.138 47.6054 193.826 47.6054 193.454C47.6054 193.082 47.7314 192.77 47.9834 192.518C48.2354 192.266 48.5474 192.14 48.9194 192.14C49.2794 192.14 49.5854 192.266 49.8374 192.518C50.0894 192.77 50.2154 193.082 50.2154 193.454C50.2154 193.826 50.0894 194.138 49.8374 194.39C49.5854 194.642 49.2794 194.768 48.9194 194.768ZM49.9274 196.082V206H47.8754V196.082H49.9274ZM56.9235 206.162C55.9875 206.162 55.1415 205.952 54.3855 205.532C53.6295 205.1 53.0355 204.5 52.6035 203.732C52.1715 202.952 51.9555 202.052 51.9555 201.032C51.9555 200.024 52.1775 199.13 52.6215 198.35C53.0655 197.57 53.6715 196.97 54.4395 196.55C55.2075 196.13 56.0655 195.92 57.0135 195.92C57.9615 195.92 58.8195 196.13 59.5875 196.55C60.3555 196.97 60.9615 197.57 61.4055 198.35C61.8495 199.13 62.0715 200.024 62.0715 201.032C62.0715 202.04 61.8435 202.934 61.3875 203.714C60.9315 204.494 60.3075 205.1 59.5155 205.532C58.7355 205.952 57.8715 206.162 56.9235 206.162ZM56.9235 204.38C57.4515 204.38 57.9435 204.254 58.3995 204.002C58.8675 203.75 59.2455 203.372 59.5335 202.868C59.8215 202.364 59.9655 201.752 59.9655 201.032C59.9655 200.312 59.8275 199.706 59.5515 199.214C59.2755 198.71 58.9095 198.332 58.4535 198.08C57.9975 197.828 57.5055 197.702 56.9775 197.702C56.4495 197.702 55.9575 197.828 55.5015 198.08C55.0575 198.332 54.7035 198.71 54.4395 199.214C54.1755 199.706 54.0435 200.312 54.0435 201.032C54.0435 202.1 54.3135 202.928 54.8535 203.516C55.4055 204.092 56.0955 204.38 56.9235 204.38ZM73.082 196.082V206H71.03V204.83C70.706 205.238 70.28 205.562 69.752 205.802C69.236 206.03 68.684 206.144 68.096 206.144C67.316 206.144 66.614 205.982 65.99 205.658C65.378 205.334 64.892 204.854 64.532 204.218C64.184 203.582 64.01 202.814 64.01 201.914V196.082H66.044V201.608C66.044 202.496 66.266 203.18 66.71 203.66C67.154 204.128 67.76 204.362 68.528 204.362C69.296 204.362 69.902 204.128 70.346 203.66C70.802 203.18 71.03 202.496 71.03 201.608V196.082H73.082ZM79.3895 206.162C78.6095 206.162 77.9075 206.024 77.2835 205.748C76.6715 205.46 76.1855 205.076 75.8255 204.596C75.4655 204.104 75.2735 203.558 75.2495 202.958H77.3735C77.4095 203.378 77.6075 203.732 77.9675 204.02C78.3395 204.296 78.8015 204.434 79.3535 204.434C79.9295 204.434 80.3735 204.326 80.6855 204.11C81.0095 203.882 81.1715 203.594 81.1715 203.246C81.1715 202.874 80.9915 202.598 80.6315 202.418C80.2835 202.238 79.7255 202.04 78.9575 201.824C78.2135 201.62 77.6075 201.422 77.1395 201.23C76.6715 201.038 76.2635 200.744 75.9155 200.348C75.5795 199.952 75.4115 199.43 75.4115 198.782C75.4115 198.254 75.5675 197.774 75.8795 197.342C76.1915 196.898 76.6355 196.55 77.2115 196.298C77.7995 196.046 78.4715 195.92 79.2275 195.92C80.3555 195.92 81.2615 196.208 81.9455 196.784C82.6415 197.348 83.0135 198.122 83.0615 199.106H81.0095C80.9735 198.662 80.7935 198.308 80.4695 198.044C80.1455 197.78 79.7075 197.648 79.1555 197.648C78.6155 197.648 78.2015 197.75 77.9135 197.954C77.6255 198.158 77.4815 198.428 77.4815 198.764C77.4815 199.028 77.5775 199.25 77.7695 199.43C77.9615 199.61 78.1955 199.754 78.4715 199.862C78.7475 199.958 79.1555 200.084 79.6955 200.24C80.4155 200.432 81.0035 200.63 81.4595 200.834C81.9275 201.026 82.3295 201.314 82.6655 201.698C83.0015 202.082 83.1755 202.592 83.1875 203.228C83.1875 203.792 83.0315 204.296 82.7195 204.74C82.4075 205.184 81.9635 205.532 81.3875 205.784C80.8235 206.036 80.1575 206.162 79.3895 206.162ZM99.1705 200.798C99.1705 201.17 99.1465 201.506 99.0985 201.806H91.5205C91.5805 202.598 91.8745 203.234 92.4025 203.714C92.9305 204.194 93.5785 204.434 94.3465 204.434C95.4505 204.434 96.2305 203.972 96.6865 203.048H98.9005C98.6005 203.96 98.0545 204.71 97.2625 205.298C96.4825 205.874 95.5105 206.162 94.3465 206.162C93.3985 206.162 92.5465 205.952 91.7905 205.532C91.0465 205.1 90.4585 204.5 90.0265 203.732C89.6065 202.952 89.3965 202.052 89.3965 201.032C89.3965 200.012 89.6005 199.118 90.0085 198.35C90.4285 197.57 91.0105 196.97 91.7545 196.55C92.5105 196.13 93.3745 195.92 94.3465 195.92C95.2825 195.92 96.1165 196.124 96.8485 196.532C97.5805 196.94 98.1505 197.516 98.5585 198.26C98.9665 198.992 99.1705 199.838 99.1705 200.798ZM97.0285 200.15C97.0165 199.394 96.7465 198.788 96.2185 198.332C95.6905 197.876 95.0365 197.648 94.2565 197.648C93.5485 197.648 92.9425 197.876 92.4385 198.332C91.9345 198.776 91.6345 199.382 91.5385 200.15H97.0285ZM108.804 198.62V200.348H101.406V198.62H108.804ZM111.035 201.032C111.035 200.012 111.239 199.118 111.647 198.35C112.067 197.57 112.643 196.97 113.375 196.55C114.107 196.13 114.947 195.92 115.895 195.92C117.095 195.92 118.085 196.208 118.865 196.784C119.657 197.348 120.191 198.158 120.467 199.214H118.253C118.073 198.722 117.785 198.338 117.389 198.062C116.993 197.786 116.495 197.648 115.895 197.648C115.055 197.648 114.383 197.948 113.879 198.548C113.387 199.136 113.141 199.964 113.141 201.032C113.141 202.1 113.387 202.934 113.879 203.534C114.383 204.134 115.055 204.434 115.895 204.434C117.083 204.434 117.869 203.912 118.253 202.868H120.467C120.179 203.876 119.639 204.68 118.847 205.28C118.055 205.868 117.071 206.162 115.895 206.162C114.947 206.162 114.107 205.952 113.375 205.532C112.643 205.1 112.067 204.5 111.647 203.732C111.239 202.952 111.035 202.052 111.035 201.032ZM126.814 206.162C125.878 206.162 125.032 205.952 124.276 205.532C123.52 205.1 122.926 204.5 122.494 203.732C122.062 202.952 121.846 202.052 121.846 201.032C121.846 200.024 122.068 199.13 122.512 198.35C122.956 197.57 123.562 196.97 124.33 196.55C125.098 196.13 125.956 195.92 126.904 195.92C127.852 195.92 128.71 196.13 129.478 196.55C130.246 196.97 130.852 197.57 131.296 198.35C131.74 199.13 131.962 200.024 131.962 201.032C131.962 202.04 131.734 202.934 131.278 203.714C130.822 204.494 130.198 205.1 129.406 205.532C128.626 205.952 127.762 206.162 126.814 206.162ZM126.814 204.38C127.342 204.38 127.834 204.254 128.29 204.002C128.758 203.75 129.136 203.372 129.424 202.868C129.712 202.364 129.856 201.752 129.856 201.032C129.856 200.312 129.718 199.706 129.442 199.214C129.166 198.71 128.8 198.332 128.344 198.08C127.888 197.828 127.396 197.702 126.868 197.702C126.34 197.702 125.848 197.828 125.392 198.08C124.948 198.332 124.594 198.71 124.33 199.214C124.066 199.706 123.934 200.312 123.934 201.032C123.934 202.1 124.204 202.928 124.744 203.516C125.296 204.092 125.986 204.38 126.814 204.38ZM145.997 195.92C146.777 195.92 147.473 196.082 148.085 196.406C148.709 196.73 149.195 197.21 149.543 197.846C149.903 198.482 150.083 199.25 150.083 200.15V206H148.049V200.456C148.049 199.568 147.827 198.89 147.383 198.422C146.939 197.942 146.333 197.702 145.565 197.702C144.797 197.702 144.185 197.942 143.729 198.422C143.285 198.89 143.063 199.568 143.063 200.456V206H141.029V200.456C141.029 199.568 140.807 198.89 140.363 198.422C139.919 197.942 139.313 197.702 138.545 197.702C137.777 197.702 137.165 197.942 136.709 198.422C136.265 198.89 136.043 199.568 136.043 200.456V206H133.991V196.082H136.043V197.216C136.379 196.808 136.805 196.49 137.321 196.262C137.837 196.034 138.389 195.92 138.977 195.92C139.769 195.92 140.477 196.088 141.101 196.424C141.725 196.76 142.205 197.246 142.541 197.882C142.841 197.282 143.309 196.808 143.945 196.46C144.581 196.1 145.265 195.92 145.997 195.92ZM164.7 195.92C165.48 195.92 166.176 196.082 166.788 196.406C167.412 196.73 167.898 197.21 168.246 197.846C168.606 198.482 168.786 199.25 168.786 200.15V206H166.752V200.456C166.752 199.568 166.53 198.89 166.086 198.422C165.642 197.942 165.036 197.702 164.268 197.702C163.5 197.702 162.888 197.942 162.432 198.422C161.988 198.89 161.766 199.568 161.766 200.456V206H159.732V200.456C159.732 199.568 159.51 198.89 159.066 198.422C158.622 197.942 158.016 197.702 157.248 197.702C156.48 197.702 155.868 197.942 155.412 198.422C154.968 198.89 154.746 199.568 154.746 200.456V206H152.694V196.082H154.746V197.216C155.082 196.808 155.508 196.49 156.024 196.262C156.54 196.034 157.092 195.92 157.68 195.92C158.472 195.92 159.18 196.088 159.804 196.424C160.428 196.76 160.908 197.246 161.244 197.882C161.544 197.282 162.012 196.808 162.648 196.46C163.284 196.1 163.968 195.92 164.7 195.92ZM180.487 200.798C180.487 201.17 180.463 201.506 180.415 201.806H172.837C172.897 202.598 173.191 203.234 173.719 203.714C174.247 204.194 174.895 204.434 175.663 204.434C176.767 204.434 177.547 203.972 178.003 203.048H180.217C179.917 203.96 179.371 204.71 178.579 205.298C177.799 205.874 176.827 206.162 175.663 206.162C174.715 206.162 173.863 205.952 173.107 205.532C172.363 205.1 171.775 204.5 171.343 203.732C170.923 202.952 170.713 202.052 170.713 201.032C170.713 200.012 170.917 199.118 171.325 198.35C171.745 197.57 172.327 196.97 173.071 196.55C173.827 196.13 174.691 195.92 175.663 195.92C176.599 195.92 177.433 196.124 178.165 196.532C178.897 196.94 179.467 197.516 179.875 198.26C180.283 198.992 180.487 199.838 180.487 200.798ZM178.345 200.15C178.333 199.394 178.063 198.788 177.535 198.332C177.007 197.876 176.353 197.648 175.573 197.648C174.865 197.648 174.259 197.876 173.755 198.332C173.251 198.776 172.951 199.382 172.855 200.15H178.345ZM184.558 197.522C184.858 197.018 185.254 196.628 185.746 196.352C186.25 196.064 186.844 195.92 187.528 195.92V198.044H187.006C186.202 198.044 185.59 198.248 185.17 198.656C184.762 199.064 184.558 199.772 184.558 200.78V206H182.506V196.082H184.558V197.522ZM188.73 201.032C188.73 200.012 188.934 199.118 189.342 198.35C189.762 197.57 190.338 196.97 191.07 196.55C191.802 196.13 192.642 195.92 193.59 195.92C194.79 195.92 195.78 196.208 196.56 196.784C197.352 197.348 197.886 198.158 198.162 199.214H195.948C195.768 198.722 195.48 198.338 195.084 198.062C194.688 197.786 194.19 197.648 193.59 197.648C192.75 197.648 192.078 197.948 191.574 198.548C191.082 199.136 190.836 199.964 190.836 201.032C190.836 202.1 191.082 202.934 191.574 203.534C192.078 204.134 192.75 204.434 193.59 204.434C194.778 204.434 195.564 203.912 195.948 202.868H198.162C197.874 203.876 197.334 204.68 196.542 205.28C195.75 205.868 194.766 206.162 193.59 206.162C192.642 206.162 191.802 205.952 191.07 205.532C190.338 205.1 189.762 204.5 189.342 203.732C188.934 202.952 188.73 202.052 188.73 201.032ZM209.297 200.798C209.297 201.17 209.273 201.506 209.225 201.806H201.647C201.707 202.598 202.001 203.234 202.529 203.714C203.057 204.194 203.705 204.434 204.473 204.434C205.577 204.434 206.357 203.972 206.813 203.048H209.027C208.727 203.96 208.181 204.71 207.389 205.298C206.609 205.874 205.637 206.162 204.473 206.162C203.525 206.162 202.673 205.952 201.917 205.532C201.173 205.1 200.585 204.5 200.153 203.732C199.733 202.952 199.523 202.052 199.523 201.032C199.523 200.012 199.727 199.118 200.135 198.35C200.555 197.57 201.137 196.97 201.881 196.55C202.637 196.13 203.501 195.92 204.473 195.92C205.409 195.92 206.243 196.124 206.975 196.532C207.707 196.94 208.277 197.516 208.685 198.26C209.093 198.992 209.297 199.838 209.297 200.798ZM207.155 200.15C207.143 199.394 206.873 198.788 206.345 198.332C205.817 197.876 205.163 197.648 204.383 197.648C203.675 197.648 203.069 197.876 202.565 198.332C202.061 198.776 201.761 199.382 201.665 200.15H207.155ZM229.313 196.082L226.235 206H224.075L222.077 198.674L220.079 206H217.919L214.823 196.082H216.911L218.981 204.056L221.087 196.082H223.229L225.245 204.02L227.297 196.082H229.313ZM239.936 200.798C239.936 201.17 239.912 201.506 239.864 201.806H232.286C232.346 202.598 232.64 203.234 233.168 203.714C233.696 204.194 234.344 204.434 235.112 204.434C236.216 204.434 236.996 203.972 237.452 203.048H239.666C239.366 203.96 238.82 204.71 238.028 205.298C237.248 205.874 236.276 206.162 235.112 206.162C234.164 206.162 233.312 205.952 232.556 205.532C231.812 205.1 231.224 204.5 230.792 203.732C230.372 202.952 230.162 202.052 230.162 201.032C230.162 200.012 230.366 199.118 230.774 198.35C231.194 197.57 231.776 196.97 232.52 196.55C233.276 196.13 234.14 195.92 235.112 195.92C236.048 195.92 236.882 196.124 237.614 196.532C238.346 196.94 238.916 197.516 239.324 198.26C239.732 198.992 239.936 199.838 239.936 200.798ZM237.794 200.15C237.782 199.394 237.512 198.788 236.984 198.332C236.456 197.876 235.802 197.648 235.022 197.648C234.314 197.648 233.708 197.876 233.204 198.332C232.7 198.776 232.4 199.382 232.304 200.15H237.794ZM244.007 197.558C244.355 197.078 244.829 196.688 245.429 196.388C246.041 196.076 246.719 195.92 247.463 195.92C248.339 195.92 249.131 196.13 249.839 196.55C250.547 196.97 251.105 197.57 251.513 198.35C251.921 199.118 252.125 200 252.125 200.996C252.125 201.992 251.921 202.886 251.513 203.678C251.105 204.458 250.541 205.07 249.821 205.514C249.113 205.946 248.327 206.162 247.463 206.162C246.695 206.162 246.011 206.012 245.411 205.712C244.823 205.412 244.355 205.028 244.007 204.56V206H241.955V192.68H244.007V197.558ZM250.037 200.996C250.037 200.312 249.893 199.724 249.605 199.232C249.329 198.728 248.957 198.35 248.489 198.098C248.033 197.834 247.541 197.702 247.013 197.702C246.497 197.702 246.005 197.834 245.537 198.098C245.081 198.362 244.709 198.746 244.421 199.25C244.145 199.754 244.007 200.348 244.007 201.032C244.007 201.716 244.145 202.316 244.421 202.832C244.709 203.336 245.081 203.72 245.537 203.984C246.005 204.248 246.497 204.38 247.013 204.38C247.541 204.38 248.033 204.248 248.489 203.984C248.957 203.708 249.329 203.312 249.605 202.796C249.893 202.28 250.037 201.68 250.037 200.996ZM257.755 206.162C256.975 206.162 256.273 206.024 255.649 205.748C255.037 205.46 254.551 205.076 254.191 204.596C253.831 204.104 253.639 203.558 253.615 202.958H255.739C255.775 203.378 255.973 203.732 256.333 204.02C256.705 204.296 257.167 204.434 257.719 204.434C258.295 204.434 258.739 204.326 259.051 204.11C259.375 203.882 259.537 203.594 259.537 203.246C259.537 202.874 259.357 202.598 258.997 202.418C258.649 202.238 258.091 202.04 257.323 201.824C256.579 201.62 255.973 201.422 255.505 201.23C255.037 201.038 254.629 200.744 254.281 200.348C253.945 199.952 253.777 199.43 253.777 198.782C253.777 198.254 253.933 197.774 254.245 197.342C254.557 196.898 255.001 196.55 255.577 196.298C256.165 196.046 256.837 195.92 257.593 195.92C258.721 195.92 259.627 196.208 260.311 196.784C261.007 197.348 261.379 198.122 261.427 199.106H259.375C259.339 198.662 259.159 198.308 258.835 198.044C258.511 197.78 258.073 197.648 257.521 197.648C256.981 197.648 256.567 197.75 256.279 197.954C255.991 198.158 255.847 198.428 255.847 198.764C255.847 199.028 255.943 199.25 256.135 199.43C256.327 199.61 256.561 199.754 256.837 199.862C257.113 199.958 257.521 200.084 258.061 200.24C258.781 200.432 259.369 200.63 259.825 200.834C260.293 201.026 260.695 201.314 261.031 201.698C261.367 202.082 261.541 202.592 261.553 203.228C261.553 203.792 261.397 204.296 261.085 204.74C260.773 205.184 260.329 205.532 259.753 205.784C259.189 206.036 258.523 206.162 257.755 206.162ZM264.814 194.768C264.442 194.768 264.13 194.642 263.878 194.39C263.626 194.138 263.5 193.826 263.5 193.454C263.5 193.082 263.626 192.77 263.878 192.518C264.13 192.266 264.442 192.14 264.814 192.14C265.174 192.14 265.48 192.266 265.732 192.518C265.984 192.77 266.11 193.082 266.11 193.454C266.11 193.826 265.984 194.138 265.732 194.39C265.48 194.642 265.174 194.768 264.814 194.768ZM265.822 196.082V206H263.77V196.082H265.822ZM270.91 197.756V203.246C270.91 203.618 270.994 203.888 271.162 204.056C271.342 204.212 271.642 204.29 272.062 204.29H273.322V206H271.702C270.778 206 270.07 205.784 269.578 205.352C269.086 204.92 268.84 204.218 268.84 203.246V197.756H267.67V196.082H268.84V193.616H270.91V196.082H273.322V197.756H270.91ZM284.303 200.798C284.303 201.17 284.279 201.506 284.231 201.806H276.653C276.713 202.598 277.007 203.234 277.535 203.714C278.063 204.194 278.711 204.434 279.479 204.434C280.583 204.434 281.363 203.972 281.819 203.048H284.033C283.733 203.96 283.187 204.71 282.395 205.298C281.615 205.874 280.643 206.162 279.479 206.162C278.531 206.162 277.679 205.952 276.923 205.532C276.179 205.1 275.591 204.5 275.159 203.732C274.739 202.952 274.529 202.052 274.529 201.032C274.529 200.012 274.733 199.118 275.141 198.35C275.561 197.57 276.143 196.97 276.887 196.55C277.643 196.13 278.507 195.92 279.479 195.92C280.415 195.92 281.249 196.124 281.981 196.532C282.713 196.94 283.283 197.516 283.691 198.26C284.099 198.992 284.303 199.838 284.303 200.798ZM282.161 200.15C282.149 199.394 281.879 198.788 281.351 198.332C280.823 197.876 280.169 197.648 279.389 197.648C278.681 197.648 278.075 197.876 277.571 198.332C277.067 198.776 276.767 199.382 276.671 200.15H282.161ZM289.923 206.162C289.143 206.162 288.441 206.024 287.817 205.748C287.205 205.46 286.719 205.076 286.359 204.596C285.999 204.104 285.807 203.558 285.783 202.958H287.907C287.943 203.378 288.141 203.732 288.501 204.02C288.873 204.296 289.335 204.434 289.887 204.434C290.463 204.434 290.907 204.326 291.219 204.11C291.543 203.882 291.705 203.594 291.705 203.246C291.705 202.874 291.525 202.598 291.165 202.418C290.817 202.238 290.259 202.04 289.491 201.824C288.747 201.62 288.141 201.422 287.673 201.23C287.205 201.038 286.797 200.744 286.449 200.348C286.113 199.952 285.945 199.43 285.945 198.782C285.945 198.254 286.101 197.774 286.413 197.342C286.725 196.898 287.169 196.55 287.745 196.298C288.333 196.046 289.005 195.92 289.761 195.92C290.889 195.92 291.795 196.208 292.479 196.784C293.175 197.348 293.547 198.122 293.595 199.106H291.543C291.507 198.662 291.327 198.308 291.003 198.044C290.679 197.78 290.241 197.648 289.689 197.648C289.149 197.648 288.735 197.75 288.447 197.954C288.159 198.158 288.015 198.428 288.015 198.764C288.015 199.028 288.111 199.25 288.303 199.43C288.495 199.61 288.729 199.754 289.005 199.862C289.281 199.958 289.689 200.084 290.229 200.24C290.949 200.432 291.537 200.63 291.993 200.834C292.461 201.026 292.863 201.314 293.199 201.698C293.535 202.082 293.709 202.592 293.721 203.228C293.721 203.792 293.565 204.296 293.253 204.74C292.941 205.184 292.497 205.532 291.921 205.784C291.357 206.036 290.691 206.162 289.923 206.162ZM298.188 203.534L296.01 208.502H294.678L295.956 203.534H298.188ZM313.747 200.798C313.747 201.17 313.723 201.506 313.675 201.806H306.097C306.157 202.598 306.451 203.234 306.979 203.714C307.507 204.194 308.155 204.434 308.923 204.434C310.027 204.434 310.807 203.972 311.263 203.048H313.477C313.177 203.96 312.631 204.71 311.839 205.298C311.059 205.874 310.087 206.162 308.923 206.162C307.975 206.162 307.123 205.952 306.367 205.532C305.623 205.1 305.035 204.5 304.603 203.732C304.183 202.952 303.973 202.052 303.973 201.032C303.973 200.012 304.177 199.118 304.585 198.35C305.005 197.57 305.587 196.97 306.331 196.55C307.087 196.13 307.951 195.92 308.923 195.92C309.859 195.92 310.693 196.124 311.425 196.532C312.157 196.94 312.727 197.516 313.135 198.26C313.543 198.992 313.747 199.838 313.747 200.798ZM311.605 200.15C311.593 199.394 311.323 198.788 310.795 198.332C310.267 197.876 309.613 197.648 308.833 197.648C308.125 197.648 307.519 197.876 307.015 198.332C306.511 198.776 306.211 199.382 306.115 200.15H311.605ZM320.77 195.92C321.55 195.92 322.246 196.082 322.858 196.406C323.482 196.73 323.968 197.21 324.316 197.846C324.664 198.482 324.838 199.25 324.838 200.15V206H322.804V200.456C322.804 199.568 322.582 198.89 322.138 198.422C321.694 197.942 321.088 197.702 320.32 197.702C319.552 197.702 318.94 197.942 318.484 198.422C318.04 198.89 317.818 199.568 317.818 200.456V206H315.766V196.082H317.818V197.216C318.154 196.808 318.58 196.49 319.096 196.262C319.624 196.034 320.182 195.92 320.77 195.92ZM331.055 206.162C330.275 206.162 329.573 206.024 328.949 205.748C328.337 205.46 327.851 205.076 327.491 204.596C327.131 204.104 326.939 203.558 326.915 202.958H329.039C329.075 203.378 329.273 203.732 329.633 204.02C330.005 204.296 330.467 204.434 331.019 204.434C331.595 204.434 332.039 204.326 332.351 204.11C332.675 203.882 332.837 203.594 332.837 203.246C332.837 202.874 332.657 202.598 332.297 202.418C331.949 202.238 331.391 202.04 330.623 201.824C329.879 201.62 329.273 201.422 328.805 201.23C328.337 201.038 327.929 200.744 327.581 200.348C327.245 199.952 327.077 199.43 327.077 198.782C327.077 198.254 327.233 197.774 327.545 197.342C327.857 196.898 328.301 196.55 328.877 196.298C329.465 196.046 330.137 195.92 330.893 195.92C332.021 195.92 332.927 196.208 333.611 196.784C334.307 197.348 334.679 198.122 334.727 199.106H332.675C332.639 198.662 332.459 198.308 332.135 198.044C331.811 197.78 331.373 197.648 330.821 197.648C330.281 197.648 329.867 197.75 329.579 197.954C329.291 198.158 329.147 198.428 329.147 198.764C329.147 199.028 329.243 199.25 329.435 199.43C329.627 199.61 329.861 199.754 330.137 199.862C330.413 199.958 330.821 200.084 331.361 200.24C332.081 200.432 332.669 200.63 333.125 200.834C333.593 201.026 333.995 201.314 334.331 201.698C334.667 202.082 334.841 202.592 334.853 203.228C334.853 203.792 334.697 204.296 334.385 204.74C334.073 205.184 333.629 205.532 333.053 205.784C332.489 206.036 331.823 206.162 331.055 206.162ZM346.053 196.082V206H344.001V204.83C343.677 205.238 343.251 205.562 342.723 205.802C342.207 206.03 341.655 206.144 341.067 206.144C340.287 206.144 339.585 205.982 338.961 205.658C338.349 205.334 337.863 204.854 337.503 204.218C337.155 203.582 336.981 202.814 336.981 201.914V196.082H339.015V201.608C339.015 202.496 339.237 203.18 339.681 203.66C340.125 204.128 340.731 204.362 341.499 204.362C342.267 204.362 342.873 204.128 343.317 203.66C343.773 203.18 344.001 202.496 344.001 201.608V196.082H346.053ZM350.812 197.522C351.112 197.018 351.508 196.628 352 196.352C352.504 196.064 353.098 195.92 353.782 195.92V198.044H353.26C352.456 198.044 351.844 198.248 351.424 198.656C351.016 199.064 350.812 199.772 350.812 200.78V206H348.76V196.082H350.812V197.522ZM356.712 194.768C356.34 194.768 356.028 194.642 355.776 194.39C355.524 194.138 355.398 193.826 355.398 193.454C355.398 193.082 355.524 192.77 355.776 192.518C356.028 192.266 356.34 192.14 356.712 192.14C357.072 192.14 357.378 192.266 357.63 192.518C357.882 192.77 358.008 193.082 358.008 193.454C358.008 193.826 357.882 194.138 357.63 194.39C357.378 194.642 357.072 194.768 356.712 194.768ZM357.72 196.082V206H355.668V196.082H357.72ZM365.418 195.92C366.198 195.92 366.894 196.082 367.506 196.406C368.13 196.73 368.616 197.21 368.964 197.846C369.312 198.482 369.486 199.25 369.486 200.15V206H367.452V200.456C367.452 199.568 367.23 198.89 366.786 198.422C366.342 197.942 365.736 197.702 364.968 197.702C364.2 197.702 363.588 197.942 363.132 198.422C362.688 198.89 362.466 199.568 362.466 200.456V206H360.414V196.082H362.466V197.216C362.802 196.808 363.228 196.49 363.744 196.262C364.272 196.034 364.83 195.92 365.418 195.92ZM376.1 195.92C376.868 195.92 377.546 196.076 378.134 196.388C378.734 196.688 379.202 197.066 379.538 197.522V196.082H381.608V206.162C381.608 207.074 381.416 207.884 381.032 208.592C380.648 209.312 380.09 209.876 379.358 210.284C378.638 210.692 377.774 210.896 376.766 210.896C375.422 210.896 374.306 210.578 373.418 209.942C372.53 209.318 372.026 208.466 371.906 207.386H373.94C374.096 207.902 374.426 208.316 374.93 208.628C375.446 208.952 376.058 209.114 376.766 209.114C377.594 209.114 378.26 208.862 378.764 208.358C379.28 207.854 379.538 207.122 379.538 206.162V204.506C379.19 204.974 378.716 205.37 378.116 205.694C377.528 206.006 376.856 206.162 376.1 206.162C375.236 206.162 374.444 205.946 373.724 205.514C373.016 205.07 372.452 204.458 372.032 203.678C371.624 202.886 371.42 201.992 371.42 200.996C371.42 200 371.624 199.118 372.032 198.35C372.452 197.582 373.016 196.988 373.724 196.568C374.444 196.136 375.236 195.92 376.1 195.92ZM379.538 201.032C379.538 200.348 379.394 199.754 379.106 199.25C378.83 198.746 378.464 198.362 378.008 198.098C377.552 197.834 377.06 197.702 376.532 197.702C376.004 197.702 375.512 197.834 375.056 198.098C374.6 198.35 374.228 198.728 373.94 199.232C373.664 199.724 373.526 200.312 373.526 200.996C373.526 201.68 373.664 202.28 373.94 202.796C374.228 203.312 374.6 203.708 375.056 203.984C375.524 204.248 376.016 204.38 376.532 204.38C377.06 204.38 377.552 204.248 378.008 203.984C378.464 203.72 378.83 203.336 379.106 202.832C379.394 202.316 379.538 201.716 379.538 201.032ZM30.5856 223.082L24.5016 237.662H22.3776L24.3936 232.838L20.4876 223.082H22.7736L25.5636 230.642L28.4616 223.082H30.5856ZM36.4362 233.162C35.5002 233.162 34.6542 232.952 33.8982 232.532C33.1422 232.1 32.5482 231.5 32.1162 230.732C31.6842 229.952 31.4682 229.052 31.4682 228.032C31.4682 227.024 31.6902 226.13 32.1342 225.35C32.5782 224.57 33.1842 223.97 33.9522 223.55C34.7202 223.13 35.5782 222.92 36.5262 222.92C37.4742 222.92 38.3322 223.13 39.1002 223.55C39.8682 223.97 40.4742 224.57 40.9182 225.35C41.3622 226.13 41.5842 227.024 41.5842 228.032C41.5842 229.04 41.3562 229.934 40.9002 230.714C40.4442 231.494 39.8202 232.1 39.0282 232.532C38.2482 232.952 37.3842 233.162 36.4362 233.162ZM36.4362 231.38C36.9642 231.38 37.4562 231.254 37.9122 231.002C38.3802 230.75 38.7582 230.372 39.0462 229.868C39.3342 229.364 39.4782 228.752 39.4782 228.032C39.4782 227.312 39.3402 226.706 39.0642 226.214C38.7882 225.71 38.4222 225.332 37.9662 225.08C37.5102 224.828 37.0182 224.702 36.4902 224.702C35.9622 224.702 35.4702 224.828 35.0142 225.08C34.5702 225.332 34.2162 225.71 33.9522 226.214C33.6882 226.706 33.5562 227.312 33.5562 228.032C33.5562 229.1 33.8262 229.928 34.3662 230.516C34.9182 231.092 35.6082 231.38 36.4362 231.38ZM52.5947 223.082V233H50.5427V231.83C50.2187 232.238 49.7927 232.562 49.2647 232.802C48.7487 233.03 48.1967 233.144 47.6087 233.144C46.8287 233.144 46.1267 232.982 45.5027 232.658C44.8907 232.334 44.4047 231.854 44.0447 231.218C43.6967 230.582 43.5227 229.814 43.5227 228.914V223.082H45.5567V228.608C45.5567 229.496 45.7787 230.18 46.2227 230.66C46.6667 231.128 47.2727 231.362 48.0407 231.362C48.8087 231.362 49.4147 231.128 49.8587 230.66C50.3147 230.18 50.5427 229.496 50.5427 228.608V223.082H52.5947ZM65.1079 222.92C65.8639 222.92 66.5359 223.082 67.1239 223.406C67.7239 223.73 68.1919 224.21 68.5279 224.846C68.8759 225.482 69.0499 226.25 69.0499 227.15V233H67.0159V227.456C67.0159 226.568 66.7939 225.89 66.3499 225.422C65.9059 224.942 65.2999 224.702 64.5319 224.702C63.7639 224.702 63.1519 224.942 62.6959 225.422C62.2519 225.89 62.0299 226.568 62.0299 227.456V233H59.9779V219.68H62.0299V224.234C62.3779 223.814 62.8159 223.49 63.3439 223.262C63.8839 223.034 64.4719 222.92 65.1079 222.92ZM70.9834 227.996C70.9834 227 71.1874 226.118 71.5954 225.35C72.0154 224.582 72.5794 223.988 73.2874 223.568C74.0074 223.136 74.7994 222.92 75.6634 222.92C76.4434 222.92 77.1214 223.076 77.6974 223.388C78.2854 223.688 78.7534 224.066 79.1014 224.522V223.082H81.1714V233H79.1014V231.524C78.7534 231.992 78.2794 232.382 77.6794 232.694C77.0794 233.006 76.3954 233.162 75.6274 233.162C74.7754 233.162 73.9954 232.946 73.2874 232.514C72.5794 232.07 72.0154 231.458 71.5954 230.678C71.1874 229.886 70.9834 228.992 70.9834 227.996ZM79.1014 228.032C79.1014 227.348 78.9574 226.754 78.6694 226.25C78.3934 225.746 78.0274 225.362 77.5714 225.098C77.1154 224.834 76.6234 224.702 76.0954 224.702C75.5674 224.702 75.0754 224.834 74.6194 225.098C74.1634 225.35 73.7914 225.728 73.5034 226.232C73.2274 226.724 73.0894 227.312 73.0894 227.996C73.0894 228.68 73.2274 229.28 73.5034 229.796C73.7914 230.312 74.1634 230.708 74.6194 230.984C75.0874 231.248 75.5794 231.38 76.0954 231.38C76.6234 231.38 77.1154 231.248 77.5714 230.984C78.0274 230.72 78.3934 230.336 78.6694 229.832C78.9574 229.316 79.1014 228.716 79.1014 228.032ZM87.7006 231.164L90.5086 223.082H92.6866L88.9066 233H86.4586L82.6966 223.082H84.8926L87.7006 231.164ZM103.328 227.798C103.328 228.17 103.304 228.506 103.256 228.806H95.6777C95.7377 229.598 96.0317 230.234 96.5597 230.714C97.0877 231.194 97.7357 231.434 98.5037 231.434C99.6077 231.434 100.388 230.972 100.844 230.048H103.058C102.758 230.96 102.212 231.71 101.42 232.298C100.64 232.874 99.6677 233.162 98.5037 233.162C97.5557 233.162 96.7037 232.952 95.9477 232.532C95.2037 232.1 94.6157 231.5 94.1837 230.732C93.7637 229.952 93.5537 229.052 93.5537 228.032C93.5537 227.012 93.7577 226.118 94.1657 225.35C94.5857 224.57 95.1677 223.97 95.9117 223.55C96.6677 223.13 97.5317 222.92 98.5037 222.92C99.4397 222.92 100.274 223.124 101.006 223.532C101.738 223.94 102.308 224.516 102.716 225.26C103.124 225.992 103.328 226.838 103.328 227.798ZM101.186 227.15C101.174 226.394 100.904 225.788 100.376 225.332C99.8477 224.876 99.1937 224.648 98.4137 224.648C97.7057 224.648 97.0997 224.876 96.5957 225.332C96.0917 225.776 95.7917 226.382 95.6957 227.15H101.186ZM109.339 227.996C109.339 227 109.543 226.118 109.951 225.35C110.371 224.582 110.935 223.988 111.643 223.568C112.363 223.136 113.155 222.92 114.019 222.92C114.799 222.92 115.477 223.076 116.053 223.388C116.641 223.688 117.109 224.066 117.457 224.522V223.082H119.527V233H117.457V231.524C117.109 231.992 116.635 232.382 116.035 232.694C115.435 233.006 114.751 233.162 113.983 233.162C113.131 233.162 112.351 232.946 111.643 232.514C110.935 232.07 110.371 231.458 109.951 230.678C109.543 229.886 109.339 228.992 109.339 227.996ZM117.457 228.032C117.457 227.348 117.313 226.754 117.025 226.25C116.749 225.746 116.383 225.362 115.927 225.098C115.471 224.834 114.979 224.702 114.451 224.702C113.923 224.702 113.431 224.834 112.975 225.098C112.519 225.35 112.147 225.728 111.859 226.232C111.583 226.724 111.445 227.312 111.445 227.996C111.445 228.68 111.583 229.28 111.859 229.796C112.147 230.312 112.519 230.708 112.975 230.984C113.443 231.248 113.935 231.38 114.451 231.38C114.979 231.38 115.471 231.248 115.927 230.984C116.383 230.72 116.749 230.336 117.025 229.832C117.313 229.316 117.457 228.716 117.457 228.032ZM124.274 219.68V233H122.222V219.68H124.274ZM129.02 219.68V233H126.968V219.68H129.02ZM138.784 224.756V230.246C138.784 230.618 138.868 230.888 139.036 231.056C139.216 231.212 139.516 231.29 139.936 231.29H141.196V233H139.576C138.652 233 137.944 232.784 137.452 232.352C136.96 231.92 136.714 231.218 136.714 230.246V224.756H135.544V223.082H136.714V220.616H138.784V223.082H141.196V224.756H138.784ZM148.217 222.92C148.973 222.92 149.645 223.082 150.233 223.406C150.833 223.73 151.301 224.21 151.637 224.846C151.985 225.482 152.159 226.25 152.159 227.15V233H150.125V227.456C150.125 226.568 149.903 225.89 149.459 225.422C149.015 224.942 148.409 224.702 147.641 224.702C146.873 224.702 146.261 224.942 145.805 225.422C145.361 225.89 145.139 226.568 145.139 227.456V233H143.087V219.68H145.139V224.234C145.487 223.814 145.925 223.49 146.453 223.262C146.993 223.034 147.581 222.92 148.217 222.92ZM163.867 227.798C163.867 228.17 163.843 228.506 163.795 228.806H156.217C156.277 229.598 156.571 230.234 157.099 230.714C157.627 231.194 158.275 231.434 159.043 231.434C160.147 231.434 160.927 230.972 161.383 230.048H163.597C163.297 230.96 162.751 231.71 161.959 232.298C161.179 232.874 160.207 233.162 159.043 233.162C158.095 233.162 157.243 232.952 156.487 232.532C155.743 232.1 155.155 231.5 154.723 230.732C154.303 229.952 154.093 229.052 154.093 228.032C154.093 227.012 154.297 226.118 154.705 225.35C155.125 224.57 155.707 223.97 156.451 223.55C157.207 223.13 158.071 222.92 159.043 222.92C159.979 222.92 160.813 223.124 161.545 223.532C162.277 223.94 162.847 224.516 163.255 225.26C163.663 225.992 163.867 226.838 163.867 227.798ZM161.725 227.15C161.713 226.394 161.443 225.788 160.915 225.332C160.387 224.876 159.733 224.648 158.953 224.648C158.245 224.648 157.639 224.876 157.135 225.332C156.631 225.776 156.331 226.382 156.235 227.15H161.725ZM169.878 227.996C169.878 227 170.082 226.118 170.49 225.35C170.91 224.582 171.474 223.988 172.182 223.568C172.902 223.136 173.7 222.92 174.576 222.92C175.224 222.92 175.86 223.064 176.484 223.352C177.12 223.628 177.624 224 177.996 224.468V219.68H180.066V233H177.996V231.506C177.66 231.986 177.192 232.382 176.592 232.694C176.004 233.006 175.326 233.162 174.558 233.162C173.694 233.162 172.902 232.946 172.182 232.514C171.474 232.07 170.91 231.458 170.49 230.678C170.082 229.886 169.878 228.992 169.878 227.996ZM177.996 228.032C177.996 227.348 177.852 226.754 177.564 226.25C177.288 225.746 176.922 225.362 176.466 225.098C176.01 224.834 175.518 224.702 174.99 224.702C174.462 224.702 173.97 224.834 173.514 225.098C173.058 225.35 172.686 225.728 172.398 226.232C172.122 226.724 171.984 227.312 171.984 227.996C171.984 228.68 172.122 229.28 172.398 229.796C172.686 230.312 173.058 230.708 173.514 230.984C173.982 231.248 174.474 231.38 174.99 231.38C175.518 231.38 176.01 231.248 176.466 230.984C176.922 230.72 177.288 230.336 177.564 229.832C177.852 229.316 177.996 228.716 177.996 228.032ZM191.851 227.798C191.851 228.17 191.827 228.506 191.779 228.806H184.201C184.261 229.598 184.555 230.234 185.083 230.714C185.611 231.194 186.259 231.434 187.027 231.434C188.131 231.434 188.911 230.972 189.367 230.048H191.581C191.281 230.96 190.735 231.71 189.943 232.298C189.163 232.874 188.191 233.162 187.027 233.162C186.079 233.162 185.227 232.952 184.471 232.532C183.727 232.1 183.139 231.5 182.707 230.732C182.287 229.952 182.077 229.052 182.077 228.032C182.077 227.012 182.281 226.118 182.689 225.35C183.109 224.57 183.691 223.97 184.435 223.55C185.191 223.13 186.055 222.92 187.027 222.92C187.963 222.92 188.797 223.124 189.529 223.532C190.261 223.94 190.831 224.516 191.239 225.26C191.647 225.992 191.851 226.838 191.851 227.798ZM189.709 227.15C189.697 226.394 189.427 225.788 188.899 225.332C188.371 224.876 187.717 224.648 186.937 224.648C186.229 224.648 185.623 224.876 185.119 225.332C184.615 225.776 184.315 226.382 184.219 227.15H189.709ZM196.265 224.756V230.246C196.265 230.618 196.349 230.888 196.517 231.056C196.697 231.212 196.997 231.29 197.417 231.29H198.677V233H197.057C196.133 233 195.425 232.784 194.933 232.352C194.441 231.92 194.195 231.218 194.195 230.246V224.756H193.025V223.082H194.195V220.616H196.265V223.082H198.677V224.756H196.265ZM199.884 227.996C199.884 227 200.088 226.118 200.496 225.35C200.916 224.582 201.48 223.988 202.188 223.568C202.908 223.136 203.7 222.92 204.564 222.92C205.344 222.92 206.022 223.076 206.598 223.388C207.186 223.688 207.654 224.066 208.002 224.522V223.082H210.072V233H208.002V231.524C207.654 231.992 207.18 232.382 206.58 232.694C205.98 233.006 205.296 233.162 204.528 233.162C203.676 233.162 202.896 232.946 202.188 232.514C201.48 232.07 200.916 231.458 200.496 230.678C200.088 229.886 199.884 228.992 199.884 227.996ZM208.002 228.032C208.002 227.348 207.858 226.754 207.57 226.25C207.294 225.746 206.928 225.362 206.472 225.098C206.016 224.834 205.524 224.702 204.996 224.702C204.468 224.702 203.976 224.834 203.52 225.098C203.064 225.35 202.692 225.728 202.404 226.232C202.128 226.724 201.99 227.312 201.99 227.996C201.99 228.68 202.128 229.28 202.404 229.796C202.692 230.312 203.064 230.708 203.52 230.984C203.988 231.248 204.48 231.38 204.996 231.38C205.524 231.38 206.016 231.248 206.472 230.984C206.928 230.72 207.294 230.336 207.57 229.832C207.858 229.316 208.002 228.716 208.002 228.032ZM213.811 221.768C213.439 221.768 213.127 221.642 212.875 221.39C212.623 221.138 212.497 220.826 212.497 220.454C212.497 220.082 212.623 219.77 212.875 219.518C213.127 219.266 213.439 219.14 213.811 219.14C214.171 219.14 214.477 219.266 214.729 219.518C214.981 219.77 215.107 220.082 215.107 220.454C215.107 220.826 214.981 221.138 214.729 221.39C214.477 221.642 214.171 221.768 213.811 221.768ZM214.819 223.082V233H212.767V223.082H214.819ZM219.565 219.68V233H217.513V219.68H219.565ZM225.859 233.162C225.079 233.162 224.377 233.024 223.753 232.748C223.141 232.46 222.655 232.076 222.295 231.596C221.935 231.104 221.743 230.558 221.719 229.958H223.843C223.879 230.378 224.077 230.732 224.437 231.02C224.809 231.296 225.271 231.434 225.823 231.434C226.399 231.434 226.843 231.326 227.155 231.11C227.479 230.882 227.641 230.594 227.641 230.246C227.641 229.874 227.461 229.598 227.101 229.418C226.753 229.238 226.195 229.04 225.427 228.824C224.683 228.62 224.077 228.422 223.609 228.23C223.141 228.038 222.733 227.744 222.385 227.348C222.049 226.952 221.881 226.43 221.881 225.782C221.881 225.254 222.037 224.774 222.349 224.342C222.661 223.898 223.105 223.55 223.681 223.298C224.269 223.046 224.941 222.92 225.697 222.92C226.825 222.92 227.731 223.208 228.415 223.784C229.111 224.348 229.483 225.122 229.531 226.106H227.479C227.443 225.662 227.263 225.308 226.939 225.044C226.615 224.78 226.177 224.648 225.625 224.648C225.085 224.648 224.671 224.75 224.383 224.954C224.095 225.158 223.951 225.428 223.951 225.764C223.951 226.028 224.047 226.25 224.239 226.43C224.431 226.61 224.665 226.754 224.941 226.862C225.217 226.958 225.625 227.084 226.165 227.24C226.885 227.432 227.473 227.63 227.929 227.834C228.397 228.026 228.799 228.314 229.135 228.698C229.471 229.082 229.645 229.592 229.657 230.228C229.657 230.792 229.501 231.296 229.189 231.74C228.877 232.184 228.433 232.532 227.857 232.784C227.293 233.036 226.627 233.162 225.859 233.162ZM245.478 223.082L239.394 237.662H237.27L239.286 232.838L235.38 223.082H237.666L240.456 230.642L243.354 223.082H245.478ZM251.329 233.162C250.393 233.162 249.547 232.952 248.791 232.532C248.035 232.1 247.441 231.5 247.009 230.732C246.577 229.952 246.361 229.052 246.361 228.032C246.361 227.024 246.583 226.13 247.027 225.35C247.471 224.57 248.077 223.97 248.845 223.55C249.613 223.13 250.471 222.92 251.419 222.92C252.367 222.92 253.225 223.13 253.993 223.55C254.761 223.97 255.367 224.57 255.811 225.35C256.255 226.13 256.477 227.024 256.477 228.032C256.477 229.04 256.249 229.934 255.793 230.714C255.337 231.494 254.713 232.1 253.921 232.532C253.141 232.952 252.277 233.162 251.329 233.162ZM251.329 231.38C251.857 231.38 252.349 231.254 252.805 231.002C253.273 230.75 253.651 230.372 253.939 229.868C254.227 229.364 254.371 228.752 254.371 228.032C254.371 227.312 254.233 226.706 253.957 226.214C253.681 225.71 253.315 225.332 252.859 225.08C252.403 224.828 251.911 224.702 251.383 224.702C250.855 224.702 250.363 224.828 249.907 225.08C249.463 225.332 249.109 225.71 248.845 226.214C248.581 226.706 248.449 227.312 248.449 228.032C248.449 229.1 248.719 229.928 249.259 230.516C249.811 231.092 250.501 231.38 251.329 231.38ZM267.487 223.082V233H265.435V231.83C265.111 232.238 264.685 232.562 264.157 232.802C263.641 233.03 263.089 233.144 262.501 233.144C261.721 233.144 261.019 232.982 260.395 232.658C259.783 232.334 259.297 231.854 258.937 231.218C258.589 230.582 258.415 229.814 258.415 228.914V223.082H260.449V228.608C260.449 229.496 260.671 230.18 261.115 230.66C261.559 231.128 262.165 231.362 262.933 231.362C263.701 231.362 264.307 231.128 264.751 230.66C265.207 230.18 265.435 229.496 265.435 228.608V223.082H267.487ZM279.875 222.92C280.655 222.92 281.351 223.082 281.963 223.406C282.587 223.73 283.073 224.21 283.421 224.846C283.769 225.482 283.943 226.25 283.943 227.15V233H281.909V227.456C281.909 226.568 281.687 225.89 281.243 225.422C280.799 224.942 280.193 224.702 279.425 224.702C278.657 224.702 278.045 224.942 277.589 225.422C277.145 225.89 276.923 226.568 276.923 227.456V233H274.871V223.082H276.923V224.216C277.259 223.808 277.685 223.49 278.201 223.262C278.729 223.034 279.287 222.92 279.875 222.92ZM295.65 227.798C295.65 228.17 295.626 228.506 295.578 228.806H288C288.06 229.598 288.354 230.234 288.882 230.714C289.41 231.194 290.058 231.434 290.826 231.434C291.93 231.434 292.71 230.972 293.166 230.048H295.38C295.08 230.96 294.534 231.71 293.742 232.298C292.962 232.874 291.99 233.162 290.826 233.162C289.878 233.162 289.026 232.952 288.27 232.532C287.526 232.1 286.938 231.5 286.506 230.732C286.086 229.952 285.876 229.052 285.876 228.032C285.876 227.012 286.08 226.118 286.488 225.35C286.908 224.57 287.49 223.97 288.234 223.55C288.99 223.13 289.854 222.92 290.826 222.92C291.762 222.92 292.596 223.124 293.328 223.532C294.06 223.94 294.63 224.516 295.038 225.26C295.446 225.992 295.65 226.838 295.65 227.798ZM293.508 227.15C293.496 226.394 293.226 225.788 292.698 225.332C292.17 224.876 291.516 224.648 290.736 224.648C290.028 224.648 289.422 224.876 288.918 225.332C288.414 225.776 288.114 226.382 288.018 227.15H293.508ZM306.759 227.798C306.759 228.17 306.735 228.506 306.687 228.806H299.109C299.169 229.598 299.463 230.234 299.991 230.714C300.519 231.194 301.167 231.434 301.935 231.434C303.039 231.434 303.819 230.972 304.275 230.048H306.489C306.189 230.96 305.643 231.71 304.851 232.298C304.071 232.874 303.099 233.162 301.935 233.162C300.987 233.162 300.135 232.952 299.379 232.532C298.635 232.1 298.047 231.5 297.615 230.732C297.195 229.952 296.985 229.052 296.985 228.032C296.985 227.012 297.189 226.118 297.597 225.35C298.017 224.57 298.599 223.97 299.343 223.55C300.099 223.13 300.963 222.92 301.935 222.92C302.871 222.92 303.705 223.124 304.437 223.532C305.169 223.94 305.739 224.516 306.147 225.26C306.555 225.992 306.759 226.838 306.759 227.798ZM304.617 227.15C304.605 226.394 304.335 225.788 303.807 225.332C303.279 224.876 302.625 224.648 301.845 224.648C301.137 224.648 300.531 224.876 300.027 225.332C299.523 225.776 299.223 226.382 299.127 227.15H304.617ZM308.095 227.996C308.095 227 308.299 226.118 308.707 225.35C309.127 224.582 309.691 223.988 310.399 223.568C311.119 223.136 311.917 222.92 312.793 222.92C313.441 222.92 314.077 223.064 314.701 223.352C315.337 223.628 315.841 224 316.213 224.468V219.68H318.283V233H316.213V231.506C315.877 231.986 315.409 232.382 314.809 232.694C314.221 233.006 313.543 233.162 312.775 233.162C311.911 233.162 311.119 232.946 310.399 232.514C309.691 232.07 309.127 231.458 308.707 230.678C308.299 229.886 308.095 228.992 308.095 227.996ZM316.213 228.032C316.213 227.348 316.069 226.754 315.781 226.25C315.505 225.746 315.139 225.362 314.683 225.098C314.227 224.834 313.735 224.702 313.207 224.702C312.679 224.702 312.187 224.834 311.731 225.098C311.275 225.35 310.903 225.728 310.615 226.232C310.339 226.724 310.201 227.312 310.201 227.996C310.201 228.68 310.339 229.28 310.615 229.796C310.903 230.312 311.275 230.708 311.731 230.984C312.199 231.248 312.691 231.38 313.207 231.38C313.735 231.38 314.227 231.248 314.683 230.984C315.139 230.72 315.505 230.336 315.781 229.832C316.069 229.316 316.213 228.716 316.213 228.032ZM326.698 221.768C326.326 221.768 326.014 221.642 325.762 221.39C325.51 221.138 325.384 220.826 325.384 220.454C325.384 220.082 325.51 219.77 325.762 219.518C326.014 219.266 326.326 219.14 326.698 219.14C327.058 219.14 327.364 219.266 327.616 219.518C327.868 219.77 327.994 220.082 327.994 220.454C327.994 220.826 327.868 221.138 327.616 221.39C327.364 221.642 327.058 221.768 326.698 221.768ZM327.706 223.082V233H325.654V223.082H327.706ZM335.404 222.92C336.184 222.92 336.88 223.082 337.492 223.406C338.116 223.73 338.602 224.21 338.95 224.846C339.298 225.482 339.472 226.25 339.472 227.15V233H337.438V227.456C337.438 226.568 337.216 225.89 336.772 225.422C336.328 224.942 335.722 224.702 334.954 224.702C334.186 224.702 333.574 224.942 333.118 225.422C332.674 225.89 332.452 226.568 332.452 227.456V233H330.4V223.082H332.452V224.216C332.788 223.808 333.214 223.49 333.73 223.262C334.258 223.034 334.816 222.92 335.404 222.92ZM351.067 233.162C350.131 233.162 349.285 232.952 348.529 232.532C347.773 232.1 347.179 231.5 346.747 230.732C346.315 229.952 346.099 229.052 346.099 228.032C346.099 227.024 346.321 226.13 346.765 225.35C347.209 224.57 347.815 223.97 348.583 223.55C349.351 223.13 350.209 222.92 351.157 222.92C352.105 222.92 352.963 223.13 353.731 223.55C354.499 223.97 355.105 224.57 355.549 225.35C355.993 226.13 356.215 227.024 356.215 228.032C356.215 229.04 355.987 229.934 355.531 230.714C355.075 231.494 354.451 232.1 353.659 232.532C352.879 232.952 352.015 233.162 351.067 233.162ZM351.067 231.38C351.595 231.38 352.087 231.254 352.543 231.002C353.011 230.75 353.389 230.372 353.677 229.868C353.965 229.364 354.109 228.752 354.109 228.032C354.109 227.312 353.971 226.706 353.695 226.214C353.419 225.71 353.053 225.332 352.597 225.08C352.141 224.828 351.649 224.702 351.121 224.702C350.593 224.702 350.101 224.828 349.645 225.08C349.201 225.332 348.847 225.71 348.583 226.214C348.319 226.706 348.187 227.312 348.187 228.032C348.187 229.1 348.457 229.928 348.997 230.516C349.549 231.092 350.239 231.38 351.067 231.38ZM363.248 222.92C364.028 222.92 364.724 223.082 365.336 223.406C365.96 223.73 366.446 224.21 366.794 224.846C367.142 225.482 367.316 226.25 367.316 227.15V233H365.282V227.456C365.282 226.568 365.06 225.89 364.616 225.422C364.172 224.942 363.566 224.702 362.798 224.702C362.03 224.702 361.418 224.942 360.962 225.422C360.518 225.89 360.296 226.568 360.296 227.456V233H358.244V223.082H360.296V224.216C360.632 223.808 361.058 223.49 361.574 223.262C362.102 223.034 362.66 222.92 363.248 222.92ZM379.023 227.798C379.023 228.17 378.999 228.506 378.951 228.806H371.373C371.433 229.598 371.727 230.234 372.255 230.714C372.783 231.194 373.431 231.434 374.199 231.434C375.303 231.434 376.083 230.972 376.539 230.048H378.753C378.453 230.96 377.907 231.71 377.115 232.298C376.335 232.874 375.363 233.162 374.199 233.162C373.251 233.162 372.399 232.952 371.643 232.532C370.899 232.1 370.311 231.5 369.879 230.732C369.459 229.952 369.249 229.052 369.249 228.032C369.249 227.012 369.453 226.118 369.861 225.35C370.281 224.57 370.863 223.97 371.607 223.55C372.363 223.13 373.227 222.92 374.199 222.92C375.135 222.92 375.969 223.124 376.701 223.532C377.433 223.94 378.003 224.516 378.411 225.26C378.819 225.992 379.023 226.838 379.023 227.798ZM376.881 227.15C376.869 226.394 376.599 225.788 376.071 225.332C375.543 224.876 374.889 224.648 374.109 224.648C373.401 224.648 372.795 224.876 372.291 225.332C371.787 225.776 371.487 226.382 371.391 227.15H376.881ZM175.708 251.54C176.056 251.084 176.53 250.7 177.13 250.388C177.73 250.076 178.408 249.92 179.164 249.92C180.028 249.92 180.814 250.136 181.522 250.568C182.242 250.988 182.806 251.582 183.214 252.35C183.622 253.118 183.826 254 183.826 254.996C183.826 255.992 183.622 256.886 183.214 257.678C182.806 258.458 182.242 259.07 181.522 259.514C180.814 259.946 180.028 260.162 179.164 260.162C178.408 260.162 177.736 260.012 177.148 259.712C176.56 259.4 176.08 259.016 175.708 258.56V264.716H173.656V250.082H175.708V251.54ZM181.738 254.996C181.738 254.312 181.594 253.724 181.306 253.232C181.03 252.728 180.658 252.35 180.19 252.098C179.734 251.834 179.242 251.702 178.714 251.702C178.198 251.702 177.706 251.834 177.238 252.098C176.782 252.362 176.41 252.746 176.122 253.25C175.846 253.754 175.708 254.348 175.708 255.032C175.708 255.716 175.846 256.316 176.122 256.832C176.41 257.336 176.782 257.72 177.238 257.984C177.706 258.248 178.198 258.38 178.714 258.38C179.242 258.38 179.734 258.248 180.19 257.984C180.658 257.708 181.03 257.312 181.306 256.796C181.594 256.28 181.738 255.68 181.738 254.996ZM187.907 246.68V260H185.855V246.68H187.907ZM189.917 254.996C189.917 254 190.121 253.118 190.529 252.35C190.949 251.582 191.513 250.988 192.221 250.568C192.941 250.136 193.733 249.92 194.597 249.92C195.377 249.92 196.055 250.076 196.631 250.388C197.219 250.688 197.687 251.066 198.035 251.522V250.082H200.105V260H198.035V258.524C197.687 258.992 197.213 259.382 196.613 259.694C196.013 260.006 195.329 260.162 194.561 260.162C193.709 260.162 192.929 259.946 192.221 259.514C191.513 259.07 190.949 258.458 190.529 257.678C190.121 256.886 189.917 255.992 189.917 254.996ZM198.035 255.032C198.035 254.348 197.891 253.754 197.603 253.25C197.327 252.746 196.961 252.362 196.505 252.098C196.049 251.834 195.557 251.702 195.029 251.702C194.501 251.702 194.009 251.834 193.553 252.098C193.097 252.35 192.725 252.728 192.437 253.232C192.161 253.724 192.023 254.312 192.023 254.996C192.023 255.68 192.161 256.28 192.437 256.796C192.725 257.312 193.097 257.708 193.553 257.984C194.021 258.248 194.513 258.38 195.029 258.38C195.557 258.38 196.049 258.248 196.505 257.984C196.961 257.72 197.327 257.336 197.603 256.832C197.891 256.316 198.035 255.716 198.035 255.032ZM202.116 255.032C202.116 254.012 202.32 253.118 202.728 252.35C203.148 251.57 203.724 250.97 204.456 250.55C205.188 250.13 206.028 249.92 206.976 249.92C208.176 249.92 209.166 250.208 209.946 250.784C210.738 251.348 211.272 252.158 211.548 253.214H209.334C209.154 252.722 208.866 252.338 208.47 252.062C208.074 251.786 207.576 251.648 206.976 251.648C206.136 251.648 205.464 251.948 204.96 252.548C204.468 253.136 204.222 253.964 204.222 255.032C204.222 256.1 204.468 256.934 204.96 257.534C205.464 258.134 206.136 258.434 206.976 258.434C208.164 258.434 208.95 257.912 209.334 256.868H211.548C211.26 257.876 210.72 258.68 209.928 259.28C209.136 259.868 208.152 260.162 206.976 260.162C206.028 260.162 205.188 259.952 204.456 259.532C203.724 259.1 203.148 258.5 202.728 257.732C202.32 256.952 202.116 256.052 202.116 255.032ZM222.683 254.798C222.683 255.17 222.659 255.506 222.611 255.806H215.033C215.093 256.598 215.387 257.234 215.915 257.714C216.443 258.194 217.091 258.434 217.859 258.434C218.963 258.434 219.743 257.972 220.199 257.048H222.413C222.113 257.96 221.567 258.71 220.775 259.298C219.995 259.874 219.023 260.162 217.859 260.162C216.911 260.162 216.059 259.952 215.303 259.532C214.559 259.1 213.971 258.5 213.539 257.732C213.119 256.952 212.909 256.052 212.909 255.032C212.909 254.012 213.113 253.118 213.521 252.35C213.941 251.57 214.523 250.97 215.267 250.55C216.023 250.13 216.887 249.92 217.859 249.92C218.795 249.92 219.629 250.124 220.361 250.532C221.093 250.94 221.663 251.516 222.071 252.26C222.479 252.992 222.683 253.838 222.683 254.798ZM220.541 254.15C220.529 253.394 220.259 252.788 219.731 252.332C219.203 251.876 218.549 251.648 217.769 251.648C217.061 251.648 216.455 251.876 215.951 252.332C215.447 252.776 215.147 253.382 215.051 254.15H220.541ZM225.531 260.126C225.159 260.126 224.847 260 224.595 259.748C224.343 259.496 224.217 259.184 224.217 258.812C224.217 258.44 224.343 258.128 224.595 257.876C224.847 257.624 225.159 257.498 225.531 257.498C225.891 257.498 226.197 257.624 226.449 257.876C226.701 258.128 226.827 258.44 226.827 258.812C226.827 259.184 226.701 259.496 226.449 259.748C226.197 260 225.891 260.126 225.531 260.126Z" fill="#1E1E1E" fill-opacity="0.5"/>
</svg>
