<svg width="723" height="512" viewBox="0 0 723 512" fill="none" xmlns="http://www.w3.org/2000/svg">
<path d="M204 312C204 201.543 293.543 112 404 112H454C564.457 112 654 201.543 654 312V512H404C293.543 512 204 422.457 204 312V312Z" fill="#1E1E1E"/>
<path d="M9.15951 355.059C10.5797 341.163 10.023 323.585 27.1626 321.132C35.3069 319.967 45.6411 328.433 48.1549 335.55C50.24 341.453 54.9372 348.027 50.5371 354.138C47.0809 358.938 41.0251 361.054 35.4936 358.275C19.7852 350.381 35.3569 333.489 45.7205 331.295C59.8661 328.299 88.8699 354.334 81.8963 369.453C75.9171 382.416 63.7363 371.652 67.1164 360.734C71.8712 345.376 80.5221 341.256 96.8024 348.549C109.514 354.244 113.999 371.968 110.722 383.701C110.041 386.138 110.02 401.168 108.159 400.457C89.8028 393.444 104.897 365.098 118.806 362.266C134.787 359.012 150.994 355.901 165.673 363.377C173.566 367.397 192.763 385.646 187.521 378.505C180.96 369.57 172.913 356.899 172.802 345.253C172.768 341.788 172.395 330.725 173.223 341.264C174.076 352.118 174.574 361.699 177.297 371.674C177.903 373.894 181.897 375.704 183.587 377.084C185.018 378.253 178.063 378.937 177.299 379.174C170.696 381.22 165.958 386.125 161.835 391.467C158.155 396.235 154.787 403.67 150.371 403.425" stroke="black" stroke-width="4" stroke-linecap="round" stroke-linejoin="round"/>
<path d="M614.712 3.45809C645.881 10.7611 640.179 8.8238 664.449 28.3829C669.993 32.8501 678.44 38.6547 680.02 44.7901C682.352 53.8443 662.738 75.4277 651.704 63.5084C644.572 55.8053 646.749 45.7162 658.427 45.4662C677.578 45.0563 691.799 61.6993 696.856 74.5055C702.423 88.6044 696.045 101.312 680.261 106.479C673.051 108.839 661.975 104.646 668.687 97.761C682.494 83.5986 695.682 107.299 692.925 118.106C687.958 137.57 656.06 157.613 628.234 147.271C619.534 144.038 622.612 141.723 626.452 140.351C630.349 138.958 640.321 132.946 637.582 135.457C632.792 139.847 627.038 140.779 620.558 142.558C612.201 144.853 628.91 157.483 633.709 161.738C636.228 163.971 639.798 168.522 640.323 171.384C641.36 177.035 632.171 160.858 630.717 155.213" stroke="black" stroke-width="5" stroke-linecap="round" stroke-linejoin="round"/>
<path d="M375.869 405.696C374.053 402.744 368.447 400.41 366.093 403.582C361.445 409.846 373.814 419.542 376.427 419.542C378.622 419.242 389.654 408.549 384.108 402.903C381.654 400.669 377.026 403.123 375.869 405.696ZM376.328 418.504C371.839 416.509 361.605 405.437 368.348 403.482C372.916 402.145 374.851 407.771 376.108 407.173C376.108 407.173 379.939 401.188 383.19 403.881C387.958 407.891 377.824 417.726 376.328 418.504ZM407.29 413.337C409.983 411.342 409.285 406.315 406.133 403.103C398.971 395.941 387.42 402.863 391.43 413.417C391.896 414.602 392.639 415.659 393.597 416.499C394.554 417.338 395.699 417.936 396.935 418.243C398.172 418.549 399.463 418.556 400.702 418.261C401.942 417.966 403.092 417.379 404.058 416.549C405.096 417.028 408.387 418.544 409.026 419.003C410.582 419.981 409.325 417.287 409.165 417.008L407.29 413.337ZM403.759 415.711C399.569 418.464 394.263 417.706 392.567 412.838C389.175 403.223 399.15 398.016 405.335 403.841C406.511 404.932 407.263 406.404 407.457 407.996C407.65 409.589 407.273 411.198 406.392 412.539C405.854 413.297 407.609 416.31 408.048 417.207C407.25 416.828 404.178 415.432 403.759 415.711ZM500.058 399.871C499.898 401.108 499.778 417.028 500.935 416.41C503.978 414.238 506.721 411.676 509.095 408.789C511.748 411.342 515.08 413.257 517.933 415.931C519.509 417.447 518.791 411.602 517.933 399.632C517.833 398.714 500.217 398.514 500.058 399.871ZM508.636 407.631C506.142 410.205 503.928 412.579 501.294 415.033L501.175 400.23C506.495 400.23 511.815 400.197 517.135 400.13C517.135 404.819 517.474 409.467 517.673 414.095C516.776 413.297 509.215 407.033 508.636 407.631ZM432.926 402.245C426.701 401.746 419.38 401.267 413.215 401.407C412.856 401.407 412.816 401.886 413.056 402.085C413.295 402.285 419.36 408.07 419.699 408.29C419.845 411.841 419.845 415.392 419.699 418.943C419.699 419.601 420.198 419.701 420.796 418.943C425.452 414.088 429.621 408.789 433.245 403.123C433.322 403.057 433.377 402.969 433.403 402.871C433.429 402.772 433.424 402.669 433.39 402.573C433.355 402.478 433.292 402.395 433.209 402.337C433.126 402.278 433.027 402.246 432.926 402.245ZM420.158 407.651C419.519 406.055 415.888 403.562 414.292 402.305C418.282 402.744 426.262 403.003 430.552 403.183C426.979 404.399 423.504 405.886 420.158 407.631V407.651ZM420.796 417.626C420.909 414.56 420.843 411.489 420.597 408.43C424.208 407.113 427.799 405.337 431.469 403.961C425.804 411.641 420.796 417.407 420.796 417.606V417.626ZM434.023 231.912C435.08 231.912 435.1 230.057 434.023 230.037C418.821 229.857 402.721 229.298 387.679 229.897C387.483 229.939 387.308 230.048 387.182 230.204C387.056 230.36 386.987 230.554 386.987 230.755C386.987 230.955 387.056 231.15 387.182 231.306C387.308 231.462 387.483 231.57 387.679 231.613C403.112 232.5 418.58 232.6 434.023 231.912Z" fill="white"/>
<path d="M518.73 334.654C518.631 326.674 517.892 263.453 517.573 252.281C517.414 251.623 508.576 252.061 507.419 252.061C507.139 251.064 506.82 250.066 506.481 249.029C506.481 248.59 509.613 241.827 503.129 239.912C501.234 235.443 494.511 222.376 488.466 223.473C482.421 224.57 470.79 243.882 468.237 250.864C467.12 251.295 466.027 251.788 464.965 252.341H437.514C437.035 251.423 436.516 250.605 435.998 249.707C430.013 237.418 409.843 236.76 400.427 245.438C389.933 255.114 391.11 271.273 401.045 280.789C403.04 282.685 401.803 285.139 399.05 282.485C388.497 272.51 387.08 255.752 396.856 244.82C392.999 243.757 388.902 243.959 385.168 245.395C381.434 246.831 378.259 249.426 376.108 252.8C371 252.8 365.873 252.8 360.766 253.019C360.387 253.019 360.227 253.737 360.227 254.016C359.749 271.971 360.048 290.146 359.968 308.061C353.265 312.51 355.16 321.567 359.968 326.814V341.856C355.569 351.883 353.936 362.905 355.24 373.776C357.235 389.018 365.474 395.721 381.933 396.859C389.634 397.377 411.619 396.539 426.721 392.09C428.529 392.688 430.406 393.05 432.307 393.168C431.828 395.981 435.14 398.714 438.292 398.135C438.292 399.811 442.402 401.627 445.753 399.073C445.583 401.816 445.683 404.569 446.052 407.292C447.309 411.921 450.262 409.287 451.519 405.696C452.859 401.575 453.374 397.229 453.035 392.908C474.541 393.667 496.925 393.048 518.531 393.048C518.91 393.048 519.428 392.23 519.428 391.951C519.322 381.657 519.209 371.362 519.089 361.068C523.179 353.168 521.503 342.694 518.73 334.654ZM507.199 270.814C511.468 268.56 508.715 256.849 507.758 253.238H516.715C516.356 278.635 517.174 306.006 517.473 331.323C509.673 312.43 492.416 297.248 475.139 286.734C476.955 284.739 478.451 283.144 476.376 282.286C478.75 280.031 477.773 277.577 476.137 276.939C476.895 275.642 476.975 273.348 475.139 272.949C475.448 272.488 475.589 271.935 475.538 271.383C475.487 270.831 475.248 270.313 474.86 269.917C475.379 269.757 476.855 269.398 477.055 268.959C481.284 270.036 503.608 272.69 507.199 270.755V270.814ZM468.217 272.131L472.646 270.615C475.339 269.957 475.199 273.029 470.272 275.423C469.174 275.942 467.698 276.62 466.681 275.742C469.055 275.562 470.172 273.847 468.217 272.071V272.131ZM474.581 273.707C477.474 274.605 473.284 279.473 470.312 279.213C468.935 279.094 469.174 278.176 469.015 277.218C471.169 276.574 473.098 275.337 474.581 273.647V273.707ZM462.112 274.525C462.112 275.862 462.95 278.395 462.99 278.974C462.984 280.502 462.877 282.028 462.671 283.542C462.671 284.161 463.808 284.64 464.087 281.787C465.643 283.981 469.174 288.171 472.067 288.45C468.835 291.203 460.716 291.323 456.805 289.827C456.247 287.173 454.551 280.43 455.13 277.976C456.306 274.909 457.992 272.063 460.117 269.558C462.112 267.363 463.209 269.558 465.364 271.193C465.623 271.393 468.237 273.348 468.237 273.388C468.237 275.563 464.726 274.485 463.229 273.927C462.431 273.607 462.072 273.368 462.112 274.565V274.525ZM471.668 280.331C473.255 279.878 474.654 278.927 475.658 277.617C476.124 277.95 476.439 278.453 476.536 279.017C476.633 279.581 476.504 280.16 476.177 280.63C474.701 282.545 470.571 283.163 471.668 280.271V280.331ZM504.007 241.667C510.331 245.059 500.815 257.169 497.005 260.321C493.089 254.186 490.217 247.445 488.506 240.371C493.075 240.431 500.017 239.473 504.007 241.608V241.667ZM485.394 226.805C483.678 239.852 495.229 263.612 503.349 270.056C493.374 270.296 486.052 268.939 476.616 267.862C472.167 263.134 469.194 258.984 468.975 252.081C473.783 242.426 477.514 234.805 485.394 226.805ZM467.578 252.5C468.257 258.485 470.711 264.77 475.558 268.46L473.563 269.198C471.457 269.56 469.431 270.289 467.578 271.353L465.344 269.558C463.568 268.141 462.411 266.166 460.057 267.962C457.763 270.327 455.9 273.075 454.551 276.081C453.198 276.64 451.786 277.042 450.342 277.278C446.471 273.687 445.055 265.647 445.394 263.094C445.813 262.455 465.444 253.518 467.598 252.5H467.578ZM462.451 253.538C457.005 256.111 451.08 258.645 445.833 261.518C445.214 261.837 444.257 262.535 444.117 263.273C443.539 266.705 446.112 276.36 449.663 278.056C450.741 278.814 452.975 278.056 454.192 277.557C453.434 281.089 454.95 286.515 455.708 290.126C454.87 290.545 456.566 296.67 456.805 297.647C452.815 296.33 442.521 294.515 438.611 296.091C438.372 294.575 438.052 293.059 437.693 291.582C438.959 291.041 440.097 290.239 441.032 289.228C441.967 288.218 442.678 287.021 443.12 285.717C446.392 277.318 441.983 261.139 438.152 253.578L462.451 253.538ZM403.08 273.308C404.137 271.433 406.412 273.168 408.068 272.69C411.738 271.632 408.307 261.358 406.851 259.283C421.334 250.585 428.616 251.184 435.698 251.303C439.888 259.483 444.776 274.106 442.421 283.443C442.132 284.91 441.502 286.29 440.585 287.471C439.667 288.652 438.485 289.602 437.135 290.246C436.935 290.246 436.297 291.124 436.377 291.403C437.328 294.707 437.739 298.142 437.594 301.577C437.155 305.567 434.9 309.817 430.412 310.176C423.589 310.734 414.99 305.647 412.457 299.143C412.419 295.208 411.999 291.286 411.2 287.433C410.262 284.301 407.549 281.767 405.434 279.453C403.319 277.139 401.903 275.403 403.08 273.308ZM361.305 253.957C365.993 254.116 370.721 253.957 375.409 253.957C373.414 258.445 374.931 261.159 377.245 265.049C380.098 269.817 379.459 273.188 373.933 274.864C365.255 277.558 358.472 282.705 366.372 291.662C369.065 294.754 373.095 298.824 369.245 302.834C367.05 305.088 363.838 305.847 361.085 307.283C361.165 293.777 361.305 268.959 361.305 253.957ZM360.926 327.951L365.395 331.422C363.661 334.075 362.121 336.848 360.786 339.722C360.926 335.732 360.946 331.881 360.946 327.951H360.926ZM450.501 404.699C449.723 407.153 447.369 411.183 446.93 405.656C446.93 404.619 446.93 398.674 446.411 398.355C447.469 397.277 449.244 394.046 448.406 392.809C448.362 392.751 448.304 392.704 448.239 392.671C448.173 392.639 448.101 392.622 448.027 392.622C447.954 392.622 447.882 392.639 447.816 392.671C447.751 392.704 447.693 392.751 447.648 392.809C447.01 393.467 447.469 396.32 444.616 398.275C443.1 399.292 440.087 399.652 438.97 397.856C440.046 397.424 441.01 396.754 441.79 395.898C442.571 395.041 443.148 394.019 443.479 392.908C443.638 391.911 442.84 391.951 442.621 392.29C441.863 393.347 441.005 396.639 437.633 396.958C434.94 397.218 433.763 395.382 433.025 393.188C438.491 393.527 438.85 391.193 437.853 391.193C436.283 391.917 434.537 392.173 432.826 391.931C430.831 391.811 428.836 391.432 426.841 391.193C427.259 385.667 428.457 373.457 444.097 375.233C452.097 381.637 453.474 395.502 450.501 404.699ZM451.08 382.754C453.493 383.952 456.23 384.336 458.88 383.851C461.593 386.046 455.469 388.38 452.377 387.462C452.084 385.853 451.636 384.277 451.04 382.754H451.08ZM452.935 391.971C452.935 390.893 452.756 389.816 452.596 388.739C460.576 389.138 461.972 383.672 459.04 383.013C457.384 382.634 455.768 383.452 451.978 381.976C450.122 381.218 450.641 381.417 449.723 379.801C442.661 367.352 415.509 357.238 402.322 355.163C403.839 348.819 404.675 342.332 404.816 335.811C404.816 335.333 404.118 335.233 404.058 335.712C403.498 342.17 402.464 348.577 400.965 354.884C397.524 354.425 394.062 354.146 390.591 354.046C390.192 354.046 390.153 355.103 390.591 355.123C409.303 356.234 427.305 362.687 442.461 373.716C432.107 372.918 425.604 380.978 426.043 390.993C411.12 395.183 392.487 397.297 376.906 395.103C364.617 393.387 357.574 385.746 356.198 373.617C352.806 344.55 371.479 312.47 411.22 298.505C412.337 306.066 423.389 311.971 430.432 311.413C437.474 310.854 439.369 302.854 438.671 296.909C444.887 296.29 451.165 296.97 457.105 298.904C458.559 304.257 460.565 309.446 463.09 314.385C461.653 312.729 458.362 309.278 456.546 307.363C455.569 306.345 454.352 306.984 455.588 308.34C462.845 315.966 469.37 324.255 475.08 333.098C485.652 350.975 492.132 370.972 494.052 391.652C480.486 391.652 466.461 391.312 452.895 391.831L452.935 391.971ZM495.369 391.791C494.77 385.07 493.677 378.402 492.097 371.841C501.154 371.662 512.047 370.963 517.793 362.944C517.912 372.546 518.025 382.149 518.132 391.751L495.369 391.791ZM516.675 362.345C510.95 370.026 500.556 370.325 491.818 370.544C486.81 350.375 478.73 335.213 466.661 318.674C464.267 315.163 455.409 293.258 456.486 290.585C464.047 293.019 471.329 291.383 474.441 287.213C494.272 301.178 513.743 316.021 519.249 341.298C520.705 348.161 521.064 356.4 516.616 362.325L516.675 362.345ZM571.179 295.772C569.563 302.435 579.558 303.393 580.675 297.986C582.052 291.582 572.695 289.867 571.179 295.772ZM325.794 328.051C317.814 331.363 309.415 334.754 301.375 337.627L307.939 348.38C313.924 344.51 319.729 340.4 325.694 336.769C325.614 333.816 325.794 330.944 325.794 328.051ZM556.077 271.991C553.004 266.864 545.443 270.994 547.558 275.981C550.411 282.545 559.209 277.258 556.077 271.991Z" fill="white"/>
<path d="M436.976 259.563C436.704 259.403 436.402 259.301 436.089 259.265C435.776 259.229 435.459 259.259 435.158 259.353C434.858 259.447 434.58 259.603 434.343 259.811C434.106 260.019 433.916 260.274 433.784 260.56C433.485 261.418 434.761 261.917 435.24 261.258C435.454 261.053 435.716 260.905 436.002 260.829C436.288 260.752 436.589 260.749 436.876 260.819C437.515 260.819 437.694 260.002 436.976 259.563ZM419.659 256.031C418.588 256.563 417.706 257.411 417.132 258.459C416.557 259.508 416.319 260.708 416.447 261.897C416.476 262.064 416.562 262.216 416.692 262.326C416.821 262.436 416.986 262.496 417.156 262.496C417.325 262.496 417.49 262.436 417.619 262.326C417.749 262.216 417.836 262.064 417.864 261.897C417.895 261.052 418.16 260.232 418.628 259.528C419.096 258.824 419.75 258.263 420.517 257.907C422.612 257.029 421.415 255.333 419.659 256.031ZM368.707 221.318C357.914 222.356 355.7 237.877 366.153 241.628C367.644 242.195 369.245 242.417 370.834 242.276C372.423 242.135 373.959 241.635 375.327 240.814C376.694 239.992 377.857 238.871 378.728 237.535C379.599 236.198 380.155 234.681 380.354 233.098C380.553 231.515 380.39 229.908 379.877 228.397C379.364 226.887 378.515 225.512 377.393 224.378C376.272 223.243 374.907 222.378 373.402 221.849C371.897 221.319 370.292 221.137 368.707 221.318ZM366.892 240.191C365.085 239.573 363.527 238.385 362.454 236.805C361.38 235.226 360.848 233.34 360.938 231.433C361.028 229.525 361.735 227.698 362.953 226.227C364.17 224.755 365.832 223.719 367.69 223.274C375.47 221.418 381.994 230.456 376.707 237.059C375.587 238.521 374.045 239.605 372.291 240.165C370.536 240.725 368.652 240.734 366.892 240.191ZM432.786 254.615C433.392 254.554 434.003 254.631 434.573 254.842C435.144 255.053 435.659 255.392 436.078 255.832C436.19 255.949 436.342 256.02 436.504 256.032C436.665 256.045 436.826 255.997 436.954 255.898C437.083 255.799 437.17 255.656 437.2 255.497C437.23 255.337 437.2 255.173 437.116 255.034C435.48 252.44 431.55 252.221 430.991 253.558C430.912 253.676 430.87 253.815 430.87 253.957C430.87 254.099 430.912 254.238 430.991 254.356C431.35 254.795 432.108 254.735 432.786 254.615ZM425.006 263.632C426.402 263.293 425.465 261.438 423.39 262.056C422.564 262.258 421.848 262.773 421.395 263.493C420.996 264.331 422.073 264.909 422.512 264.331C423.39 263.233 424.228 263.812 425.006 263.632ZM434.602 273.288C429.195 273.288 427.121 272.969 424.627 270.376C424.348 270.076 423.43 269.996 422.931 270.994C422.414 272.527 422.25 274.157 422.452 275.762C423.111 283.842 436.018 282.485 435.839 274.086C435.919 273.308 435.001 273.308 434.602 273.288ZM434.263 274.884C433.968 276.376 433.096 277.69 431.837 278.542C430.578 279.394 429.034 279.714 427.54 279.433C425.245 278.874 423.55 276.62 424.328 272.41C425.728 273.478 427.331 274.247 429.04 274.673C430.748 275.098 432.526 275.17 434.263 274.884ZM431.889 260.061C431.766 259.939 431.603 259.866 431.43 259.857C431.257 259.847 431.087 259.903 430.953 260.013C430.818 260.122 430.729 260.277 430.703 260.449C430.677 260.62 430.716 260.795 430.811 260.939C431.905 262.405 432.917 263.931 433.844 265.508C434.382 266.306 434.602 266.804 434.522 266.964C434.442 267.124 433.644 267.722 433.285 268.281C433.191 268.469 433.166 268.685 433.214 268.89C433.263 269.095 433.382 269.276 433.551 269.402C433.72 269.529 433.927 269.591 434.138 269.579C434.348 269.568 434.548 269.482 434.702 269.338C436.258 267.602 437.096 267.523 435.48 264.889C434.457 263.157 433.254 261.539 431.889 260.061ZM256.249 311.931C259.401 313.148 262.374 314.425 265.386 315.343C266.483 315.662 267.022 313.767 265.945 313.348C262.801 311.798 259.555 310.465 256.229 309.358C254.832 309.378 254.214 311.153 256.249 311.931ZM275.62 379.183C272.329 381.597 269.316 383.851 266.942 385.706C265.645 386.704 267.221 388.699 268.538 387.701C271.072 385.706 274.024 383.392 277.037 380.938C277.228 380.739 277.34 380.476 277.352 380.2C277.364 379.924 277.274 379.653 277.101 379.438C276.927 379.222 276.681 379.078 276.409 379.031C276.136 378.984 275.856 379.038 275.62 379.183ZM284.119 276.919C282.443 273.767 280.009 275.044 281.905 278.096C283.102 280.091 288.109 288.889 289.386 290.525C290.144 291.483 291.54 290.525 291.121 289.408C290.363 287.533 285.216 278.974 284.119 276.919ZM318.672 269.957C318.538 269.721 318.333 269.533 318.085 269.422C317.838 269.311 317.561 269.282 317.296 269.338C316.857 269.458 316.358 269.957 316.498 271.632C316.757 275.343 317.116 279.193 317.535 283.124C317.603 283.334 317.737 283.517 317.916 283.646C318.096 283.775 318.312 283.844 318.533 283.842C318.786 283.835 319.029 283.74 319.218 283.572C319.408 283.404 319.533 283.175 319.57 282.924C319.513 278.588 319.214 274.259 318.672 269.957ZM311.351 394.265C311.071 395.382 310.573 402.125 310.214 404.699C310.044 405.653 310.078 406.632 310.313 407.572C310.653 408.549 311.391 408.569 311.849 407.891C312.402 406.736 312.708 405.479 312.747 404.2C312.987 400.988 313.226 397.756 313.426 394.484C313.411 394.234 313.308 393.998 313.135 393.816C312.962 393.635 312.73 393.521 312.481 393.495C312.232 393.468 311.982 393.531 311.775 393.672C311.568 393.813 311.417 394.023 311.351 394.265ZM265.605 348.839C262.174 348.536 258.717 348.799 255.371 349.617C253.017 350.116 253.376 352.21 255.092 352.21C258.522 351.492 262.005 351.052 265.506 350.894C265.757 350.873 265.992 350.762 266.167 350.581C266.342 350.4 266.445 350.162 266.457 349.91C266.47 349.659 266.39 349.411 266.233 349.214C266.076 349.017 265.853 348.884 265.605 348.839ZM631.688 314.585C628.493 312.942 625.209 311.477 621.853 310.196C621.639 310.236 621.442 310.338 621.285 310.488C621.129 310.639 621.019 310.831 620.971 311.043C620.922 311.255 620.936 311.476 621.011 311.68C621.086 311.884 621.219 312.061 621.394 312.191C624.346 313.747 627.379 315.183 630.551 316.679C633.723 318.176 634.501 315.901 631.688 314.585ZM596.696 343.991C596.237 343.273 594.701 343.792 594.92 344.989C596.792 348.204 598.458 351.536 599.908 354.964C600.905 357.437 603.339 356.54 602.082 353.766C600.58 350.355 598.777 347.083 596.696 343.991ZM571.718 214.017C570.262 214.017 570.302 216.57 570.162 218.007C569.803 221.28 569.763 224.581 570.042 227.862C570.046 228.071 570.112 228.274 570.23 228.446C570.349 228.617 570.516 228.75 570.711 228.827C570.905 228.903 571.117 228.921 571.322 228.877C571.526 228.833 571.712 228.73 571.858 228.58C572.237 228.201 572.177 227.962 572.277 224.87C572.301 222.334 572.481 219.802 572.815 217.289C572.935 216.411 573.155 215.114 572.596 214.476C572.498 214.333 572.367 214.217 572.214 214.137C572.061 214.057 571.891 214.016 571.718 214.017ZM557.095 353.108L556.057 364.001C555.878 365.577 558.372 365.736 558.471 364.14C558.711 360.51 558.95 356.879 559.19 353.188C559.166 352.933 559.05 352.695 558.863 352.519C558.677 352.343 558.433 352.24 558.177 352.231C557.921 352.221 557.67 352.305 557.471 352.466C557.272 352.627 557.138 352.856 557.095 353.108ZM621.055 270.296C623.987 269.977 627.199 269.558 631.149 268.999C631.425 268.912 631.661 268.731 631.817 268.488C631.973 268.244 632.039 267.954 632.004 267.668C631.968 267.381 631.833 267.115 631.622 266.918C631.412 266.72 631.138 266.602 630.85 266.585C630.112 266.585 622.471 267.922 620.775 268.181C620.636 268.199 620.503 268.245 620.381 268.315C620.26 268.385 620.154 268.478 620.068 268.589C619.896 268.814 619.82 269.098 619.858 269.378C619.895 269.658 620.042 269.913 620.266 270.085C620.49 270.257 620.774 270.333 621.055 270.296ZM613.394 234.106C611.119 236.959 608.805 239.812 606.511 242.665C605.653 243.722 607.289 244.979 608.167 243.962L615.329 235.623C616.366 234.366 614.351 232.949 613.394 234.106ZM312.687 353.766C310.353 352.55 307.48 355.761 310.692 358.136C313.027 359.612 315.7 355.343 312.687 353.766ZM327.79 348.679C327.818 349.01 327.912 349.333 328.067 349.627C328.221 349.922 328.432 350.183 328.687 350.395C329.076 350.718 329.551 350.918 330.053 350.973C330.556 351.027 331.063 350.933 331.512 350.701C331.961 350.469 332.331 350.11 332.577 349.669C332.824 349.228 332.935 348.724 332.897 348.22C332.877 347.899 332.789 347.586 332.637 347.303C332.455 346.66 332.024 346.116 331.441 345.79C330.857 345.465 330.168 345.384 329.525 345.567C328.882 345.75 328.338 346.18 328.013 346.764C327.687 347.347 327.607 348.036 327.79 348.679Z" fill="white"/>
<path d="M611.699 284.4C608.177 281.54 604.501 278.876 600.686 276.42C601.185 274.685 604.257 260.6 604.257 259.443C604.257 258.286 589.415 257.069 587.699 256.989C585.746 252.461 584.327 247.721 583.47 242.864C583.071 240.391 570.801 249.129 569.664 250.086C565.295 246.755 560.427 242.625 555.859 239.752C554.881 239.134 547.18 252.161 546.362 253.717L535.769 253.498C535.57 237.538 535.769 221.298 535.21 205.478C534.432 182.935 525.355 179.384 506.123 179.384C462.712 179.384 418.443 179.044 374.593 179.503C352.129 179.743 342.414 181.638 342.254 207.294C342.035 242.206 342.713 277.258 342.912 311.752C320.967 288.849 281.387 301.059 276.399 332.639C275.484 338.144 275.747 343.781 277.171 349.176C278.595 354.572 281.147 359.604 284.658 363.941C288.177 368.231 292.569 371.722 297.543 374.18C302.518 376.638 307.959 378.007 313.504 378.196C319.049 378.384 324.57 377.389 329.7 375.274C334.83 373.16 339.45 369.977 343.252 365.936C343.438 384.011 343.604 402.072 343.75 420.12C343.75 420.579 344.548 420.599 344.548 420.12C344.668 401.607 344.548 383.073 344.548 364.579C360.947 342.475 351.251 322.246 344.249 313.108C344.069 277.777 344.249 242.186 343.611 206.875C406.633 208.231 470.852 206.755 533.994 206.635L534.532 253.398C532.697 253.398 529.405 253.398 529.585 254.416C530.722 260.021 531.58 265.687 532.617 271.293C530.263 272.351 521.265 276.201 521.585 277.757C523.335 282.657 525.637 287.342 528.447 291.722C526.054 295.868 523.922 300.159 522.063 304.57C521.704 305.647 533.614 306.724 535.011 306.924C534.672 311.273 534.033 316.759 534.133 320.889C534.133 321.547 534.891 321.527 535.37 321.467C535.749 354.724 536.068 387.941 536.727 421.217C536.727 421.816 537.604 421.716 537.604 421.217C537.604 387.961 537.026 354.684 536.627 321.467C540.178 321.068 544.008 320.45 547.52 320.191C549.395 324.36 553.026 331.742 554.602 331.841C555.639 331.841 566.372 322.465 567.19 321.866C567.33 322.226 580.677 329.368 583.29 330.505C584.766 331.163 587.918 317.039 588.417 315.203C589.774 315.203 604.597 313.787 604.217 312.57C602.222 306.585 601.624 300.839 600.028 295.273C601.205 294.196 612.437 285.099 611.699 284.4ZM332.658 352.809C331.608 353.381 330.383 353.545 329.219 353.269C328.056 352.992 327.035 352.296 326.354 351.313C323.222 352.589 319.93 354.106 316.578 355.303C316.653 356.099 316.535 356.901 316.236 357.642C315.937 358.384 315.465 359.043 314.859 359.564C314.253 360.086 313.53 360.454 312.753 360.64C311.975 360.825 311.164 360.821 310.388 360.629C309.612 360.436 308.893 360.061 308.292 359.534C307.691 359.007 307.225 358.344 306.932 357.6C306.64 356.856 306.53 356.052 306.611 355.257C306.693 354.462 306.964 353.698 307.401 353.028C304.03 349.038 297.426 337.068 294.673 331.403L286.933 330.565C286.724 330.536 286.524 330.466 286.342 330.36C286.161 330.254 286.002 330.113 285.875 329.945C285.749 329.777 285.656 329.586 285.603 329.383C285.55 329.179 285.537 328.967 285.566 328.759C285.595 328.551 285.664 328.35 285.771 328.169C285.877 327.988 286.018 327.829 286.186 327.702C286.353 327.575 286.544 327.482 286.748 327.429C286.951 327.376 287.163 327.364 287.372 327.393C290.504 327.552 296.189 327.393 296.808 328.63L300.479 334.994C308.818 331.283 318.015 327.552 326.414 324.48C326.658 324.395 326.918 324.362 327.176 324.383C327.434 324.404 327.685 324.479 327.913 324.603C328.14 324.727 328.339 324.897 328.496 325.103C328.654 325.309 328.767 325.545 328.828 325.797C328.901 329.927 328.721 334.057 328.289 338.166C327.99 339.323 312.808 348.699 309.975 350.435L310.294 350.974C311.145 350.742 312.042 350.744 312.891 350.979C313.741 351.215 314.512 351.674 315.122 352.31C318.274 350.774 321.466 349.497 325.097 347.961C325.089 347.235 325.236 346.516 325.528 345.851C325.82 345.187 326.25 344.592 326.79 344.107C327.33 343.622 327.967 343.257 328.659 343.038C329.351 342.818 330.082 342.749 330.803 342.834C331.958 342.92 333.052 343.386 333.915 344.158C334.778 344.931 335.36 345.968 335.572 347.107C335.784 348.246 335.613 349.423 335.086 350.454C334.559 351.485 333.705 352.313 332.658 352.809ZM436.757 192.471C436.757 187.364 444.637 186.246 446.094 191.274C448.228 198.556 436.737 200.032 436.757 192.471ZM544.926 277.577C540.697 268.939 553.884 261.817 558.731 270.675C563.579 279.533 549.515 286.914 544.926 277.577ZM554.203 301.059C553.026 302.734 550.353 301.218 551.45 299.423C557.834 289.029 566.193 275.662 574.253 264.63C575.569 262.814 578.482 264.45 577.305 266.445C570.682 277.597 561.904 290.206 554.203 301.059ZM583.629 299.064C581.095 308.32 565.874 305.507 568.288 295.074C570.542 284.979 586.482 288.63 583.629 299.064Z" fill="white"/>
</svg>
