<svg width="445" height="96" viewBox="0 0 445 96" fill="none" xmlns="http://www.w3.org/2000/svg">
<path d="M12.3228 37.3382L20.2313 32.7772L15.8169 25.1354H57.3331L36.5817 61.0903L32.1673 53.4352L24.2589 58.0096L36.5817 79.348L73.15 16H0L12.3228 37.3382Z" fill="black"/>
<path d="M93.1745 47.472C93.1745 43.0347 94.1345 39.088 96.0545 35.632C97.9745 32.1333 100.641 29.424 104.055 27.504C107.511 25.5413 111.415 24.56 115.767 24.56C121.1 24.56 125.665 25.968 129.463 28.784C133.26 31.6 135.799 35.44 137.079 40.304H125.047C124.151 38.4267 122.871 36.9973 121.207 36.016C119.585 35.0347 117.729 34.544 115.639 34.544C112.268 34.544 109.537 35.7173 107.447 38.064C105.356 40.4107 104.311 43.5467 104.311 47.472C104.311 51.3973 105.356 54.5333 107.447 56.88C109.537 59.2267 112.268 60.4 115.639 60.4C117.729 60.4 119.585 59.9093 121.207 58.928C122.871 57.9467 124.151 56.5173 125.047 54.64H137.079C135.799 59.504 133.26 63.344 129.463 66.16C125.665 68.9333 121.1 70.32 115.767 70.32C111.415 70.32 107.511 69.36 104.055 67.44C100.641 65.4773 97.9745 62.768 96.0545 59.312C94.1345 55.856 93.1745 51.9093 93.1745 47.472ZM160.037 70.512C156.538 70.512 153.381 69.7653 150.565 68.272C147.791 66.7787 145.594 64.6453 143.973 61.872C142.394 59.0987 141.605 55.856 141.605 52.144C141.605 48.4747 142.415 45.2533 144.036 42.48C145.658 39.664 147.877 37.5093 150.693 36.016C153.509 34.5227 156.666 33.776 160.165 33.776C163.663 33.776 166.821 34.5227 169.637 36.016C172.453 37.5093 174.671 39.664 176.293 42.48C177.914 45.2533 178.725 48.4747 178.725 52.144C178.725 55.8133 177.893 59.056 176.229 61.872C174.607 64.6453 172.367 66.7787 169.509 68.272C166.693 69.7653 163.535 70.512 160.037 70.512ZM160.037 61.04C162.127 61.04 163.898 60.272 165.349 58.736C166.842 57.2 167.589 55.0027 167.589 52.144C167.589 49.2853 166.863 47.088 165.413 45.552C164.005 44.016 162.255 43.248 160.165 43.248C158.031 43.248 156.261 44.016 154.853 45.552C153.445 47.0453 152.741 49.2427 152.741 52.144C152.741 55.0027 153.423 57.2 154.789 58.736C156.197 60.272 157.946 61.04 160.037 61.04ZM230.099 33.904C234.536 33.904 238.056 35.248 240.659 37.936C243.304 40.624 244.627 44.3573 244.627 49.136V70H233.747V50.608C233.747 48.304 233.128 46.5333 231.891 45.296C230.696 44.016 229.032 43.376 226.899 43.376C224.765 43.376 223.08 44.016 221.843 45.296C220.648 46.5333 220.051 48.304 220.051 50.608V70H209.171V50.608C209.171 48.304 208.552 46.5333 207.315 45.296C206.12 44.016 204.456 43.376 202.323 43.376C200.189 43.376 198.504 44.016 197.267 45.296C196.072 46.5333 195.475 48.304 195.475 50.608V70H184.531V34.288H195.475V38.768C196.584 37.2747 198.035 36.1013 199.827 35.248C201.619 34.352 203.645 33.904 205.907 33.904C208.595 33.904 210.984 34.48 213.075 35.632C215.208 36.784 216.872 38.4267 218.067 40.56C219.304 38.5973 220.989 36.9973 223.123 35.76C225.256 34.5227 227.581 33.904 230.099 33.904ZM263.225 39.344C264.291 37.68 265.763 36.336 267.641 35.312C269.518 34.288 271.715 33.776 274.233 33.776C277.177 33.776 279.843 34.5227 282.233 36.016C284.622 37.5093 286.499 39.6427 287.865 42.416C289.273 45.1893 289.977 48.4107 289.977 52.08C289.977 55.7493 289.273 58.992 287.865 61.808C286.499 64.5813 284.622 66.736 282.233 68.272C279.843 69.7653 277.177 70.512 274.233 70.512C271.758 70.512 269.561 70 267.641 68.976C265.763 67.952 264.291 66.6293 263.225 65.008V87.024H252.281V34.288H263.225V39.344ZM278.841 52.08C278.841 49.3493 278.073 47.216 276.537 45.68C275.043 44.1013 273.187 43.312 270.969 43.312C268.793 43.312 266.937 44.1013 265.401 45.68C263.907 47.2587 263.161 49.4133 263.161 52.144C263.161 54.8747 263.907 57.0293 265.401 58.608C266.937 60.1867 268.793 60.976 270.969 60.976C273.145 60.976 275.001 60.1867 276.537 58.608C278.073 56.9867 278.841 54.8107 278.841 52.08ZM293.542 52.08C293.542 48.4107 294.225 45.1893 295.59 42.416C296.998 39.6427 298.897 37.5093 301.286 36.016C303.675 34.5227 306.342 33.776 309.286 33.776C311.803 33.776 314.001 34.288 315.878 35.312C317.798 36.336 319.27 37.68 320.294 39.344V34.288H331.238V70H320.294V64.944C319.227 66.608 317.734 67.952 315.814 68.976C313.937 70 311.739 70.512 309.222 70.512C306.321 70.512 303.675 69.7653 301.286 68.272C298.897 66.736 296.998 64.5813 295.59 61.808C294.225 58.992 293.542 55.7493 293.542 52.08ZM320.294 52.144C320.294 49.4133 319.526 47.2587 317.99 45.68C316.497 44.1013 314.662 43.312 312.486 43.312C310.31 43.312 308.454 44.1013 306.918 45.68C305.425 47.216 304.678 49.3493 304.678 52.08C304.678 54.8107 305.425 56.9867 306.918 58.608C308.454 60.1867 310.31 60.976 312.486 60.976C314.662 60.976 316.497 60.1867 317.99 58.608C319.526 57.0293 320.294 54.8747 320.294 52.144ZM350.1 40.24C351.38 38.2773 352.98 36.7413 354.9 35.632C356.82 34.48 358.953 33.904 361.3 33.904V45.488H358.292C355.561 45.488 353.513 46.0853 352.148 47.28C350.782 48.432 350.1 50.48 350.1 53.424V70H339.156V34.288H350.1V40.24ZM372.035 30.576C370.115 30.576 368.536 30.0213 367.299 28.912C366.104 27.76 365.507 26.352 365.507 24.688C365.507 22.9813 366.104 21.5733 367.299 20.464C368.536 19.312 370.115 18.736 372.035 18.736C373.912 18.736 375.448 19.312 376.643 20.464C377.88 21.5733 378.499 22.9813 378.499 24.688C378.499 26.352 377.88 27.76 376.643 28.912C375.448 30.0213 373.912 30.576 372.035 30.576ZM377.475 34.288V70H366.531V34.288H377.475ZM403.326 43.376H397.438V70H386.494V43.376H382.526V34.288H386.494V33.264C386.494 28.8693 387.752 25.5413 390.27 23.28C392.787 20.976 396.478 19.824 401.342 19.824C402.152 19.824 402.75 19.8453 403.134 19.888V29.168C401.043 29.04 399.571 29.3387 398.718 30.064C397.864 30.7893 397.438 32.0907 397.438 33.968V34.288H403.326V43.376ZM444.948 34.288L422.548 86.96H410.772L418.964 68.784L404.436 34.288H416.66L424.916 56.624L433.108 34.288H444.948Z" fill="black"/>
</svg>
